<svg id="Layer_1" data-name="Layer 1" xmlns="http://www.w3.org/2000/svg" viewBox="0 0 1200 1200"><defs><style>.cls-1,.cls-10,.cls-11,.cls-2,.cls-3,.cls-4,.cls-8,.cls-9{fill:none;}.cls-1,.cls-10,.cls-11,.cls-2,.cls-3,.cls-4,.cls-5,.cls-6,.cls-7,.cls-8,.cls-9{stroke:#231f20;}.cls-1,.cls-10,.cls-11,.cls-3,.cls-4,.cls-5,.cls-8,.cls-9{stroke-linecap:round;stroke-linejoin:round;}.cls-2,.cls-6,.cls-7{stroke-miterlimit:10;}.cls-10,.cls-11,.cls-3,.cls-8,.cls-9{stroke-width:0.75px;}.cls-4{stroke-width:0.5px;}.cls-5,.cls-6,.cls-7{fill:#231f20;}.cls-7{stroke-width:0.25px;}.cls-8{stroke-dasharray:2;}.cls-9{stroke-dasharray:2.03 2.03;}.cls-10{stroke-dasharray:2.11 2.11;}.cls-11{stroke-dasharray:1.98 1.98;}</style></defs><title>ladies_and_the_hoistArtboard 1</title><path class="cls-1" d="M739.3,862.21c-.74,9.56-3.45,18.84-5.49,28.21a205.84,205.84,0,0,0-3.19,68.81c.86,6.93,2,14.26-.8,20.66s-11.46,10.71-17,6.45c-1.58,4-8.21,3.28-10.55-.38s-1.72-8.41-1-12.71q3.13-19.87,5.49-39.86c1.91-16.21,3.42-32.7.68-48.8-1.06-6.21-2.74-12.3-4-18.47-1.53-7.35-2.49-14.8-3.45-22.25l-3-23.27c-.41-3.21-.83-6.51-.1-9.67a13.75,13.75,0,0,1,23-6.76,27.54,27.54,0,0,1,4.33,6.12C734.08,827.47,740.88,841.72,739.3,862.21Z"/><path class="cls-1" d="M686.16,611.75c6.49-3,13.18-6.14,20.33-6.53,4.22-.23,8.42.49,12.63.75a57.22,57.22,0,0,0,29.22-6.09c2.11-1.08,4.86-2.24,6.65-.67,1.4,1.23,1.33,3.54,2.63,4.88,1.57,1.6,4.24,1.06,6.3.21a34.06,34.06,0,0,0,13.86-10.6c-9.46-2.61-18.57-5.8-27.78-9.21a5.88,5.88,0,0,1-2.49-1.42,28,28,0,0,0,1.3-6.43,9.48,9.48,0,0,0-1.72-6c-2.08-2.69-5.72-3.5-9.05-4.14l-9.72-1.86a27.23,27.23,0,0,0-5.53-.67,27.59,27.59,0,0,0-4.79.65l-5.23,1c-2.38.47-4.88,1-6.73,2.54a10.54,10.54,0,0,0-2.49,3.31,20.14,20.14,0,0,0,.73,19.42,7.53,7.53,0,0,1,1,2,4.21,4.21,0,0,1-1,3.64,12.26,12.26,0,0,1-3.07,2.41L688.31,607a6.42,6.42,0,0,0-2.34,2.07C685.45,610,685.3,611.16,686.16,611.75Z"/><path class="cls-1" d="M752.12,585.1c-5.92,3.62-13.46,2.34-20.32,3.37-3.54.53-7,1.7-10.56,2-3.17.24-6.59-.18-9.33,1.44-1.12.65-2,1.61-3.14,2.29a3.75,3.75,0,0,1-3.67.41"/><path class="cls-1" d="M767.63,602.44c-1.21,2.2-2.46,4.46-4.45,6s-4.47,2.27-5.53,4.41a29.61,29.61,0,0,0-1,3.37,6,6,0,0,1-6.06,3.86"/><path class="cls-1" d="M686.62,611.84a7.77,7.77,0,0,0,2.52,6.22,34.58,34.58,0,0,0,3.92,2.6c1.81,1.24,3.31,2.9,5.06,4.22s3.94,2.33,6.11,1.94a7.6,7.6,0,0,0,3.26-1.84"/><path class="cls-1" d="M747.13,631.17a103.22,103.22,0,0,0,.37,16.49,12.51,12.51,0,0,0,4.63,8.47c3.34,2.4,7.83,2.33,11.92,1.86s8.36-1.2,12.23.19c3.35,1.2,6,3.84,8.24,6.56a72.77,72.77,0,0,1,6.55,9.14c2.57,4.25,4.7,8.75,7.17,13,3.69,6.44,8.14,12.36,11.76,18.61"/><path class="cls-1" d="M734.48,621a4.82,4.82,0,0,0-3-1.41,3.29,3.29,0,0,0-2.92,1.34c-.36.51-.79,1.26-1.37,1a1.49,1.49,0,0,1-.41-.3,3.12,3.12,0,0,0-3.08-.61,11,11,0,0,0-2,1.16,2.69,2.69,0,0,1-2.18.43"/><path class="cls-1" d="M810,705.54c2.25,5,3,9.73,3.65,15a11.88,11.88,0,0,1-.26,5.66,8.16,8.16,0,0,1-5.56,4.51,30.37,30.37,0,0,1-7.38.74,76.54,76.54,0,0,0-24,4.77c-3.23,1.21-6.43,2.65-9.86,3-3.06.31-6.14-.27-9.21-.07s-6.38,1.4-7.78,4.14c-.32.64-.53,1.33-.89,1.95-1.8,3-6.33,2.88-9.14,5s-3.37,6.46-5,9.79a5,5,0,0,1-1.93,2.31,2.27,2.27,0,0,1-2.79-.37,2.6,2.6,0,0,1-.47-1.74c.08-3.51,3.29-6.3,3.56-9.8a1.39,1.39,0,0,0-.14-.9c-.54-.88-1.87-.15-2.57.61l-9,9.86c-1.38,1.52-3.56,3.15-5.25,2-1.38-1.81.07-4.45,1.85-5.88s4-2.6,4.73-4.77c.28-.86.27-1.79.5-2.67.74-2.83,3.64-4.43,6.27-5.71"/><path class="cls-1" d="M805.42,707c-6.5.48-13.08,1-19.27,3a82.57,82.57,0,0,0-8.7,3.61L747,727.63c-10.85,5-21.72,10-31.9,16.28a21.59,21.59,0,0,0-4,3,22.69,22.69,0,0,0-2.43,3l-2.78,3.88c-.58.81-1.11,2.08-.29,2.66a1.56,1.56,0,0,0,1.43.05c2.34-.8,3.61-3.23,5-5.29a24.79,24.79,0,0,1,12.25-9.53"/><path class="cls-1" d="M762.67,658.18c-3.64,5-7.43,10.83-10.56,16.19a5.47,5.47,0,0,1-2.28,2.51,5.32,5.32,0,0,1-2.06.3q-20.5.27-41-.25a1.73,1.73,0,0,1-1.34-.43,1.44,1.44,0,0,1-.28-.81c-.54-4.54,2.08-14.46,3.58-18.86"/><path class="cls-1" d="M734.55,619.37a23.62,23.62,0,0,1-4-5.49,4.65,4.65,0,0,0-1.06-1.54"/><path class="cls-1" d="M720.62,621.06a5.88,5.88,0,0,0,.87-2c0-.27,0-.54.1-.81a5.2,5.2,0,0,1,1-1.82,25.22,25.22,0,0,0,2-3.27"/><path class="cls-1" d="M731.74,619.06a1.46,1.46,0,0,0-2-1,2,2,0,0,0-1,2.17"/><path class="cls-1" d="M725.55,620.44a1.17,1.17,0,0,0-.32-1.53,1.45,1.45,0,0,0-1.62,0,1.11,1.11,0,0,0-.42.49,1.51,1.51,0,0,0-.09.47l-.14,1.24"/><path class="cls-1" d="M683.24,731.63c1.52-4.26,3-9,1.27-13.17a34.85,34.85,0,0,1-1.65-3.57,12.26,12.26,0,0,1,0-5.22q1.4-9.49,2.1-19.06a16.32,16.32,0,0,0-.51-6.86,9.66,9.66,0,0,1-.6-1.79c-.35-2.15,1.52-3.92,3-5.52a20.84,20.84,0,0,0,5.23-11.37c.1-.81.15-1.46.26-2.28a7.77,7.77,0,0,1,.79-2.62"/><path class="cls-1" d="M693.15,660.17c-2-.88-4.76.21-6.87.9a18.5,18.5,0,0,0-5.65,3.51L671.44,672c-6.36,5.1-12.75,10.24-18.06,16.43"/><path class="cls-1" d="M778.57,659.28c-.9-.74-2.4-.11-3.23.7a6.66,6.66,0,0,0-1.51,3.08c-4.55,16.4-.58.72-3.79,16"/><path class="cls-1" d="M784.31,710.25l-3.08-4.76a57.27,57.27,0,0,1-5.23-9.32c-1.55-3.82-6.16-13-6-17.08"/><path class="cls-1" d="M685.05,689.88c-1.49,2.24-3.58,3.3-5.76,4.86l-6,4.3a12.67,12.67,0,0,1-2.08,1.29,17,17,0,0,0-1.81.77,8.14,8.14,0,0,0-1.53,1.35c-2.24,2.25-8.83,12.63-11.25,14.88"/><path class="cls-1" d="M683.24,731.63c-1.3,6.39-4.39,11.45-8.29,16.66s-8.31,10.07-11.86,15.53a123.53,123.53,0,0,0-7.51,14.1l-4.66,9.74"/><path class="cls-1" d="M781.17,771.65c.14,1.25.28,2.49.41,3.74.64,6,1.28,11.94.85,17.92s-2,12-5.43,16.9a50,50,0,0,1-7.6,8.06l-5.66,5.19c-2.78,2.54-5.6,5.11-9,6.78-2.95,1.47-6.22,2.19-9.31,3.37s-6.13,3-7.73,5.86"/><path class="cls-1" d="M772,738.54c.94,6.3,4.24,12,6.25,18a59.52,59.52,0,0,1,2.21,9.43"/><path class="cls-1" d="M802.25,731.79a51.73,51.73,0,0,0-4,12.93,4.27,4.27,0,0,1-.61,1.85c-.84,1.12-2.51,1.07-3.9.87q-3.3-.47-6.57-1.18c-1.58-.35-3.32-.85-4.17-2.24a5.89,5.89,0,0,1-.53-3.48,40.44,40.44,0,0,1,1.11-6.91"/><path class="cls-1" d="M747,638.34c4.64.89,10.46.08,15.19,0,1,0,2.23.11,2.74,1a3,3,0,0,1,.24,1.52c-.1,6-.4,11.18-1.07,17.15"/><path class="cls-1" d="M757.1,638.67a120.88,120.88,0,0,0-.36,19.31"/><path class="cls-1" d="M751.21,639a3,3,0,0,0-.58,2.19c0,4.71-.1,8.92,0,13.63"/><path class="cls-1" d="M767.93,657.55c.55-4.86,1-11.95,1.35-18.11a1,1,0,0,1,.1-.44.91.91,0,0,1,.56-.32,15.77,15.77,0,0,1,5.57-.19,1.55,1.55,0,0,1,.77.2,1.6,1.6,0,0,1,.53,1.19,55.66,55.66,0,0,1-.53,18.3"/><path class="cls-1" d="M777,640.23a29.08,29.08,0,0,1,6.11-.49,2.45,2.45,0,0,1,1.46.36,2.4,2.4,0,0,1,.72,1.4,19.69,19.69,0,0,1,.56,4.38,39.37,39.37,0,0,1-.81,7.17l-1.79,10.22"/><path class="cls-1" d="M768.82,640.36a29,29,0,0,1-3.36,0"/><path class="cls-1" d="M768.82,645.29a16,16,0,0,1-3.59,0"/><path class="cls-1" d="M785.47,641.34a9.71,9.71,0,0,1,5.56.91,16.5,16.5,0,0,1,4.26,2.43,14.91,14.91,0,0,1,4.93,9.45,28.17,28.17,0,0,1-.43,10.31"/><path class="cls-1" d="M781.91,640.36a124.51,124.51,0,0,1-.16,21.24"/><path class="cls-1" d="M784.58,664.18q6.75-.27,13.49,0a4.14,4.14,0,0,1,1.72.31,3.11,3.11,0,0,1,1.4,1.91,12.51,12.51,0,0,1,.25,4.65l-.63,8.69a1.46,1.46,0,0,1-.31,1,1.4,1.4,0,0,1-.92.3,25.19,25.19,0,0,1-4.91-.11"/><path class="cls-1" d="M801.16,673.19a16.87,16.87,0,0,0-10.28-.28"/><path class="cls-1" d="M798.66,681.34l-.72,3.95c0,.11-.22-.06-.11-.1"/><path class="cls-1" d="M786.48,645a13,13,0,0,1,3.09.54,8.83,8.83,0,0,1,3.85,1.9A9.64,9.64,0,0,1,795.7,652c1.11,4,1.91,8.09.67,12.05"/><path class="cls-1" d="M696.05,816.25c.63,7.13-3.06,13.84-4.66,20.81-1.9,8.24-.87,16.91-2.41,25.23-1.42,7.73-5,14.86-7.46,22.32-4.25,12.86-5.18,26.54-6.07,40.06-.37,5.52-.73,11.09.1,16.56a20.33,20.33,0,0,1,.42,4.11c-.2,3.76-2.92,6.83-5,10-3.81,5.88-5.56,12.83-8.3,19.27s-7,12.85-13.59,15.28c-1.69.62-3.74.91-5.17-.18-1.15-.88-1.63-2.45-2.81-3.29-1.64-1.15-4-.48-5.77-1.48a5.08,5.08,0,0,1-2.2-3.7c-1.21-7.1,5.09-12.9,9.4-18.67,7.48-10,9.72-22.94,10.65-35.4,2.85-38-4.19-77.63,8.64-113.54,1.57-4.39,3.89-9.12,8.29-10.64,6.9-2.37,13.87,4.6,21.14,3.95a11.47,11.47,0,0,1,2.8-.14,3.84,3.84,0,0,1,2.84,5"/><path class="cls-1" d="M740.87,749.81l4.84.11a1.28,1.28,0,0,1,.86.24,1.15,1.15,0,0,1,.26.87c0,6.92-8.58,12-7.65,18.84a2.7,2.7,0,0,1,0,1.62c-.36.7-1.28.84-2.06.89-16.56,1-33.1-2-49.68-2.07-5.7,0-11.39.33-17.08.35a8.78,8.78,0,0,1-3.39-.45,3.11,3.11,0,0,1-2-2.55A4.59,4.59,0,0,1,666,765q5-7.14,10.09-14.26a7.66,7.66,0,0,1,8.3-4.17q13.11.34,26.23.86"/><path class="cls-1" d="M705.86,657a48.16,48.16,0,0,1,0-7.5c.34-4.11,1.15-8.32.1-12.32a1.79,1.79,0,0,0-.38-.81,1.86,1.86,0,0,0-1.07-.41,45,45,0,0,0-4.92-.45A1.29,1.29,0,0,0,698,637c-.2,7.21-.35,14-.55,21.2"/><path class="cls-1" d="M696.17,658.48c-6.38-.25-14.08-.67-20.47-.88-1.15,0-2.44,0-3.23.81a4,4,0,0,0-.83,2.48,77,77,0,0,0-.2,11.06"/><path class="cls-1" d="M698.21,636.05a43.32,43.32,0,0,0-5.08-.54,3.41,3.41,0,0,0-1.23.1,3,3,0,0,0-1.17.79,7.88,7.88,0,0,0-2.19,3.62,13.45,13.45,0,0,0-.31,3.29c-.05,5-.09,9.74-.15,14.71"/><path class="cls-1" d="M640.78,711.12c-1.51-2.24-1.84-4.82-2.2-7.5-1.09-8.08.31-16.45-1.74-24.34a41.21,41.21,0,0,0-2.47-6.71,33.89,33.89,0,0,0-3.12-5.66c-1.21-1.69-2.65-3.2-4-4.81a7.67,7.67,0,0,1-1.24-1.93,7.9,7.9,0,0,1-.43-2.69c-.09-2.21,0-4.42,0-6.62a3.4,3.4,0,0,1,.6-2.2c.53-.57,1.69-.54,1.9.21"/><path class="cls-1" d="M659.32,702.45a43.83,43.83,0,0,0-6.59-15c-1.79-2.6-3.91-5.08-4.87-8.1a15.66,15.66,0,0,1-.07-8.32c.6-2.51,1.63-5,1.49-7.55a17,17,0,0,0-.64-3.39l-2-7.74a1.88,1.88,0,0,0-.29-.72c-.51-.69-1.71-.4-2.19.32a4.1,4.1,0,0,0-.37,2.53l.49,7.27"/><path class="cls-1" d="M634.86,660.17a12.71,12.71,0,0,1-3.89-8,22.16,22.16,0,0,1,0-3.26q.09-2.32.21-4.65l.27-5.66c0-.57.16-1.28.72-1.42a1.08,1.08,0,0,1,.66.08,4.31,4.31,0,0,1,2.42,3.14,12.87,12.87,0,0,1,0,4.11,12.53,12.53,0,0,0,0,4.1c.23,1,.71,1.93,1,2.9a19.9,19.9,0,0,1,.55,7.22"/><path class="cls-1" d="M636.72,653.22a7.12,7.12,0,0,1,2.08-2.12,13.48,13.48,0,0,1,5.47-2.24.65.65,0,0,1,.46,0,.57.57,0,0,1,.2.3,3.6,3.6,0,0,1,.11,2.13"/><path class="cls-1" d="M643.69,653.21c-.66.8-1.66,1.28-2.28,2.11a3.67,3.67,0,0,0-.55,3,5.13,5.13,0,0,0,1.68,2.61,2.51,2.51,0,0,0,1.76.75"/><path class="cls-1" d="M643.17,653.68l-.06,2.22a7.79,7.79,0,0,1-.27,2.21,2.67,2.67,0,0,1-1.38,1.66"/><path class="cls-1" d="M652.64,620a5,5,0,0,0-1.8-.22H637.6"/><path class="cls-1" d="M654.83,633.18,634,633"/><path class="cls-1" d="M646.54,646.6a13.63,13.63,0,0,0-1.27,4.5"/><path class="cls-1" d="M643.35,646.56a3.69,3.69,0,0,1,.22,2.45"/><path class="cls-1" d="M629.89,659.84c0-2-1.09-3.93-1.45-6a16.87,16.87,0,0,1-.18-2.84c0-3.17,0-6.33.24-9.49a4,4,0,0,1,.76-2.44c.58-.64,1.81-.74,2.22,0"/><path class="cls-1" d="M659.32,702.45a14.26,14.26,0,0,1-.82,8.86c-.75,1.71-.45,3.81-1.56,5.32-2,2.68-6.11,2.91-9.09,1.42s-5.08-4.26-7.07-6.93"/><path class="cls-1" d="M638.41,735.28c1.61-1.6,3-3,4.56-4.6s3.07-3,4.66-4.49c3.11-2.84,6.48-5.47,9-8.86"/><path class="cls-1" d="M631.8,718.76l-8.4,8.33a7.69,7.69,0,0,0-1.88,2.45,7.32,7.32,0,0,0-.38,2.68c0,1.3.06,2.79,1.07,3.62a4.5,4.5,0,0,0,3,.68c2.46,0,5.08.29,7.54.28"/><path class="cls-1" d="M680.05,665a42.22,42.22,0,0,0-8.26-.1"/><path class="cls-1" d="M638.41,735.28a7.76,7.76,0,0,1-5.7,1.52"/><path class="cls-1" d="M792.59,747.67q-3.83,52.65-4.58,105.45"/><path class="cls-1" d="M783.32,772.5c-.16,8.47-.08,17-.37,25.41-.15,4.05-.38,8.09-.61,12.14l-2.5,43.69"/><path class="cls-1" d="M785.38,746.17a162.44,162.44,0,0,0-1.92,21.24"/><path class="cls-1" d="M691.9,635.61c-7.14.06-15.34,5.26-17.6,12a27.06,27.06,0,0,0-1.08,9.94"/><path class="cls-1" d="M688.52,640a8.37,8.37,0,0,0-7,1.58,11.1,11.1,0,0,0-3.7,7.43,32.6,32.6,0,0,0,.46,8.47"/><path class="cls-1" d="M707.1,641.33a11.43,11.43,0,0,0,2.18-.22,2,2,0,0,0,1.14-.51c.53-.58,0-2.68-.28-3.42"/><path class="cls-1" d="M709.3,641.47v11.47a6.06,6.06,0,0,1-.13,2.17"/><path class="cls-1" d="M631.8,718.76c2.73-3.5,5.81-5.1,8.49-8.45"/><path class="cls-1" d="M638.68,727.43a7.14,7.14,0,0,0-2,2.25,7,7,0,0,0-.43,3,4.86,4.86,0,0,0,.85,3.38"/><path class="cls-1" d="M649.67,718.8a62.7,62.7,0,0,1-7.88,5.58,13.85,13.85,0,0,0-3,3"/><path class="cls-1" d="M755.65,723.36a6,6,0,0,1,2.65,2.13,27.65,27.65,0,0,1,2.93,4c1.78,3.1.4,6.61-.39,10.11A14.62,14.62,0,0,0,756.28,726a3.84,3.84,0,0,0-2.68-1.2"/><path class="cls-1" d="M746.94,754.37a3.47,3.47,0,0,1,.75,3.22,10.41,10.41,0,0,1-1.5,3.09l-2.51,4a10.79,10.79,0,0,0-1.5,3,22.8,22.8,0,0,1-.65,3.33c-.45,1-1.74,1.88-2.7,1.28"/><path class="cls-1" d="M773,763.55c2.45.79,5,1.48,7.43,2.43a23,23,0,0,1,3.05,1.43,14.39,14.39,0,0,1,3.39,2.59c.65.68,1.22,1.77.59,2.47a2,2,0,0,1-1.36.47,8.1,8.1,0,0,1-2.76-.44,18.83,18.83,0,0,1-2.15-.85l-.5-.22q-13.47-6.13-26.8-12.57c-1.28-.62-9-3.29-6.59-6.11,1.43-1.69,9.25,3.52,10.92,4.37A101.6,101.6,0,0,0,773,763.55Z"/><path class="cls-1" d="M647.79,726.24q2.85,23.81,5.92,47.58"/><path class="cls-1" d="M660.14,767.59l-3.44,2.82a15.59,15.59,0,0,0-2.18,2,21,21,0,0,0-1.76,2.74,29,29,0,0,1-6.06,7.18"/><path class="cls-1" d="M659.36,768.16l-.27-8.07a47.61,47.61,0,0,0-.67-7.55c-.41-2.08-1.1-4.09-1.63-6.14A41,41,0,0,1,655.56,734c.25-4.51-.79-8.69-1.46-13.16"/><path class="cls-1" d="M640,733.94c-.59,15.33-.91,31.34-.94,46.69"/><path class="cls-1" d="M632.73,737.12q-1.05,29.55-1.12,59.11"/><path class="cls-1" d="M653.45,781a5.55,5.55,0,0,0-5.27.83c-.75.6-1.63,1.45-2.5,1-.48-.23-.71-.75-1-1.17a4.12,4.12,0,0,0-3.79-1.35,12,12,0,0,0-3.93,1.44,2.82,2.82,0,0,0-1,.67,3.26,3.26,0,0,0-.47,1.94,19.78,19.78,0,0,1-1.45,5.46l-6.12,16.38c-.75,2-1.5,4-2.08,6.12-.52,1.85-.89,3.74-1.26,5.63l-1.78,9c-.84,4.22-1.67,8.49-1.44,12.78s1.68,8.68,4.79,11.65c.77-.73,2.12-1.43,2.75-.56a2.82,2.82,0,0,1,.31.87,3.11,3.11,0,0,0,4.35,1.75,4.61,4.61,0,0,1,1.21-.66c.7-.14,1.37.32,2.06.45,1.42.28,2.71-.77,3.89-1.6s2.9-1.46,4-.49a13.15,13.15,0,0,1,3.6-3.89c1-.61,2.12-.95,3.16-1.46a10.42,10.42,0,0,0,3.62-2.93"/><path class="cls-1" d="M780.05,844.27q-21.1-2.62-42.38-3.4"/><path class="cls-1" d="M779.82,853.44c.48,9,.09,17.94-.3,26.91-.08,1.79-.16,3.58-.39,5.36-1,7.92-5.59,15.7-12.87,19-4.23,1.92-9,2.22-13.64,2.35-7.06.19-14.2,0-21.08-1.6"/><path class="cls-1" d="M708.63,903.86c-5.37.79-10.82-.12-16.22-.69a128.52,128.52,0,0,0-14.94-.73"/><path class="cls-1" d="M653.69,900.52a33.42,33.42,0,0,1-15.06-10.94,41.6,41.6,0,0,1-2.93-4.67,24.09,24.09,0,0,1-2.63-6.19,26.46,26.46,0,0,1-.42-6.53c.14-6.31.56-12.62,1.25-18.89"/><path class="cls-1" d="M627.93,850.31l-.82,14.29c-.37,6.49-.73,13.11,1,19.36a46.33,46.33,0,0,0,2.62,6.8c2.16,4.66,5,9.45,9.6,11.66a21.94,21.94,0,0,0,5.87,1.61q3.79.63,7.64.94"/><path class="cls-1" d="M676.84,906.82q16.24-.14,32.45,1.14"/><path class="cls-1" d="M788.29,852.36q-.52,17.26-2.08,34.49a26.21,26.21,0,0,1-1.34,7.15,24.71,24.71,0,0,1-3.67,6,37.17,37.17,0,0,1-4.09,4.77,27,27,0,0,1-13,6.31,69.07,69.07,0,0,1-14.59,1q-9.62-.07-19.23-.74"/><path class="cls-1" d="M808.69,840c.09,6.3,1.24,12.54,1.88,18.81.46,4.4.67,8.82.88,13.24l.42,8.82c.57,12.06,1.14,24.13,1.34,36.2-1.43-3.22-3.93-4.92-5.68-8a33.93,33.93,0,0,1-2.68-6.71l-3.27-10.17c-4.12-12.86-8.25-25.72-12-38.71a25.88,25.88,0,0,1-1.19-6.08"/><path class="cls-1" d="M802.86,846.52l.75,13.73a3.06,3.06,0,0,1-.37,2,1.85,1.85,0,0,1-1.92.54,3.42,3.42,0,0,1-1.7-1.2c-1.74-2.12-1.87-5.09-1.91-7.83L797.6,847a8.34,8.34,0,0,1,.73-4.41C800.91,838.11,802.75,844.49,802.86,846.52Z"/><path class="cls-1" d="M808.75,839.71a19.19,19.19,0,0,0-5.68-3.37c-2.47-.76-5.13-.48-7.7-.71a19.74,19.74,0,0,1-7-2"/><path class="cls-1" d="M800.13,840.65c-.75-2.53-.48-5.23-.44-7.87a43.35,43.35,0,0,0-.48-7.2,44.53,44.53,0,0,0-4.64-14.17,9.05,9.05,0,0,0-2-2.72,3.45,3.45,0,0,0-3.13-.81"/><path class="cls-1" d="M798.86,827.11c-2.11.57-4.22,1.14-6.36,1.53-1.7.32-3.54.58-4.79,1.78"/><path class="cls-1" d="M827.82,817.57a8.61,8.61,0,0,0-5.68.81"/><path class="cls-1" d="M819,836.5l-6.41-12.73c-2.05-4.08-4.14-8.26-4.66-12.78a6.75,6.75,0,0,1,.21-3.1,2.94,2.94,0,0,1,2.23-2c1.48-.2,2.73,1.06,3.59,2.28,5.36,7.49,6.33,17.25,10.51,25.46a72.92,72.92,0,0,0,4,6.67l3.48,5.31"/><path class="cls-1" d="M808.11,840.22c3.54-.18,7.08-.21,10.62-.07.55,1.44-.1,3-.48,4.51a17.4,17.4,0,0,0,.7,9.6,77.66,77.66,0,0,0,3.93,8.92c4.34,9.19,7.31,19,11.29,28.34,3.64,8.57,8.24,17.39,7.14,26.64"/><path class="cls-1" d="M841.34,918.32l-6-1.62c-2.74-.74-5.58-1.49-8.38-1.05-2.37.37-4.52,1.58-6.81,2.32s-5,1-6.92-.47c-.27-.21-.59-.46-.92-.37"/><path class="cls-1" d="M827.73,818c7.3,15.52,10.25,32.69,15.85,48.9,2,5.74,4.32,11.43,5.15,17.45"/><path class="cls-1" d="M848.85,884.26c-1.74,1.72-2.37,4.26-2.52,6.7s.11,4.89-.19,7.31c-.35,2.85-1.47,5.55-1.92,8.39-.22,1.4-.29,2.83-.5,4.24a20,20,0,0,1-2.68,7.4"/><path class="cls-1" d="M827,860.09a3.36,3.36,0,0,0,.42.9c.83,1.18,2.86.89,3.69-.29a4.3,4.3,0,0,0,.11-4.15,30.61,30.61,0,0,0-2.29-3.69,40.85,40.85,0,0,1-2.59-5.62,97,97,0,0,0-4.63-9.09,4.77,4.77,0,0,0-1.26-1.64c-2.83-2-1,2.6-.66,3.54l2.44,6.8Z"/><path class="cls-1" d="M800.12,847.14c.09-.26.5-.28.7-.08a1.09,1.09,0,0,1,.26.78c0,.46-.09,1-.52,1.17a.85.85,0,0,1-1-.65,2.4,2.4,0,0,1,.15-1.32"/><path class="cls-1" d="M799.75,855.56a3.3,3.3,0,0,1,1.73.13,2.62,2.62,0,0,1-.36,1.62.9.9,0,0,1-1.24-.38,1.91,1.91,0,0,1-.07-1.43"/><path class="cls-1" d="M827.47,855.32c0-.42.68-.58,1-.28a.92.92,0,0,1,0,1.17,2.09,2.09,0,0,1-1.07.66.47.47,0,0,1-.37,0,.38.38,0,0,1-.12-.27,2.42,2.42,0,0,1,.28-1.58"/><path class="cls-1" d="M823.59,847.85a1.23,1.23,0,0,1,1.35.2.92.92,0,0,1,0,1.3.74.74,0,0,1-1.16-.35c0-.22,0-.46,0-.68s-.27-.46-.46-.34"/><path class="cls-1" d="M827.39,817.68a30.57,30.57,0,0,1-5.19,6,9.7,9.7,0,0,0-2.24,2.14c-.83,1.34-.71,3-.63,4.6a51.09,51.09,0,0,1-.67,11.18"/><path class="cls-1" d="M800.15,737.27c.87,26.39,3.23,52.75,3.23,79.13"/><path class="cls-1" d="M792.72,749.74a13.13,13.13,0,0,0,1.67,5.66c.92,1.64,2.18,3.06,3.1,4.7,3.29,5.82,1.67,13.38-2.06,18.92-1.22,1.82-3.29,3.69-5.33,2.89"/><path class="cls-1" d="M769.14,738.74c2.37-7-1.86-15.53-8.86-17.89C766.88,724.3,770.84,731.49,769.14,738.74Z"/><path class="cls-1" d="M668.83,701.72c.08,6-.06,11.93-.19,17.89l-.17,7.54c-.08,3.41-.16,6.82-.34,10.23a15.6,15.6,0,0,1-.86,5,16.61,16.61,0,0,1-2.91,4.31c-2.2,2.6-3.57,4.14-5.77,6.75"/><path class="cls-1" d="M732,977.13a1,1,0,0,1,1.57.34,3,3,0,0,1,.18,1.83,39.12,39.12,0,0,1-4.63,14.84,23.2,23.2,0,0,1-11.46,10.21,26.64,26.64,0,0,1-7.5,1.54,16.29,16.29,0,0,1-8.2-1c-3.66-1.74-5.92-5.64-6.71-9.61s-.33-8.08.12-12.11c.24-2.1.48-4.21.83-6.3a6.85,6.85,0,0,1,1.46-3.74c.94-1,2.73-1.27,3.61-.23"/><path class="cls-1" d="M722.11,1003.15a36,36,0,0,1,0-6.14c0-2-.38-4.26-1.86-5.68-2.11-2-5.61-1.66-8.24-.37s-4.86,3.32-7.58,4.43a32.53,32.53,0,0,0-4.55,1.78c-1.4.84-2.55,2.43-2.19,4"/><path class="cls-1" d="M695.12,991c.57-1.63,2.6-2.19,4.34-2.21s3.61.22,5.07-.71"/><path class="cls-1" d="M666,967.46l2.84.43a36,36,0,0,1-13.2,22.63c-4.93,3.88-11.17,6.45-17.42,5.84-2.81-.27-5.75-1.33-7.26-3.71-1.13-1.75-1.29-3.94-1.39-6a25.6,25.6,0,0,1,.61-8.65c.84-2.78,2.78-5.38,5.55-6.27"/><path class="cls-1" d="M635.05,985.06a5.37,5.37,0,0,0-5.72,3.67"/><path class="cls-1" d="M645.8,990.27c.64-.14.94.77.94,1.43l0,3.57"/><path class="cls-1" d="M683.3,705.32a139.72,139.72,0,0,0-14.18,0"/><path class="cls-1" d="M682.67,710.74H669.12"/><path class="cls-1" d="M684.54,719c-5.56-.56-10.17-.85-15.75-1"/><path class="cls-1" d="M682.67,713.87l-13.88-.3"/><path class="cls-1" d="M685.19,724.16a111,111,0,0,1-16.4-.78"/><path class="cls-1" d="M668.47,732l14.52.75C678.05,732.57,673.41,732.2,668.47,732Z"/><path class="cls-1" d="M684,729.1l-15.17,0"/><path class="cls-1" d="M796,779.68q-.29,18.08.56,36.15"/><path class="cls-1" d="M779.1,850.8q-20.21-1.15-40.27-4.07"/><path class="cls-1" d="M699.07,838.11c-2.62-.3-5.25-.53-7.89-.67"/><path class="cls-1" d="M699.81,844c-3.24.28-6.44-1.08-9.69-1"/><path class="cls-1" d="M670.11,780.33c-4.51-.3-8.6,2.81-11.27,6.45s-4.37,7.92-7,11.61c-4.45,6.27-11.37,10.62-15.07,17.36-3.19,5.81-3.6,12.7-3.95,19.32"/><path class="cls-1" d="M670.7,797c-4.3.25-7.66,3.73-10.17,7.22a62.23,62.23,0,0,0-10.76,25.53,26,26,0,0,1-1.59,6.5c-1.33,2.9-3.83,5-6.27,7.11-2.14,1.81-4.45,3.7-7.23,4.06-3.28.44-6.41-1.34-9.25-3"/><path class="cls-1" d="M646.69,790.06c-2.06-.71-4.27.91-5.3,2.83s-1.35,4.16-2.31,6.11a24.17,24.17,0,0,1-2.81,4,55.2,55.2,0,0,0-7.79,13.66"/><path class="cls-1" d="M440.31,696.86c1,1.61.64,3.67.85,5.55a27.36,27.36,0,0,0,.77,3.43,29.31,29.31,0,0,1,.87,7c0,2.65-.45,5.51-2.31,7.4a9.67,9.67,0,0,1-4.37,2.3,15,15,0,0,1-7.24.39,9.23,9.23,0,0,1-5.9-4,10.83,10.83,0,0,1-1.29-3.48,19.15,19.15,0,0,1,.21-8.81c.93-3.54,2.88-6.8,3.42-10.43"/><path class="cls-1" d="M440.36,696.5a4.75,4.75,0,0,0-1.8-.23H425.32"/><path class="cls-1" d="M426.54,617.36c-.06-9.23,2.23-19,8.92-25.39,2.26-2.15,4.93-3.81,7.31-5.82,3.09-2.62,5.76-5.85,9.38-7.67,5.89-3,13.42-1.4,18.47,2.84s7.83,10.74,8.71,17.28,0,13.18-1.18,19.68"/><path class="cls-1" d="M466.24,642q11.11,1,22.15,2.64c4.06.62,8.49,1.51,11.09,4.71"/><path class="cls-1" d="M426.29,618.25a83.42,83.42,0,0,1-4.92-25.15c-.16-3.93,0-8,1.55-11.6,1.33-3.08,3.6-5.64,5.84-8.13a32.77,32.77,0,0,1,6.42-6,21.24,21.24,0,0,1,12-3.08,44.46,44.46,0,0,1,12.32,2.34,38.24,38.24,0,0,1,11.79,5.57c5.37,4.08,8.79,10.36,10.32,16.93s1.29,13.44.38,20.12c-.42,3.08-1,6.23-2.73,8.83"/><path class="cls-1" d="M443.27,564.35a12.38,12.38,0,0,1,5.88-4c1.5-.47,3.14-.68,4.36-1.67a6.57,6.57,0,0,1,1.31-1c1.66-.77,3.34,1.06,5.13,1.39,1.18.22,2.44-.23,3.57.15s1.89,1.53,2.75,2.43,2.25,1.81,2.81,3.1.32,2.74,1.06,3.86c.37.54.93.94,1.25,1.51s.25,1.47-.37,1.69"/><path class="cls-1" d="M458.05,605.62a8.31,8.31,0,0,0-2.67-.66,2.82,2.82,0,0,0-2.42,1.09"/><path class="cls-1" d="M475.05,606.94a15.93,15.93,0,0,1,4.52.14"/><path class="cls-1" d="M436,607.34l-3.37,0a3.82,3.82,0,0,0-3,.82"/><path class="cls-1" d="M426.45,617.42c-.28,1.05.44,2.07.92,3,.61,1.24.88,2.63,1.49,3.87a3.9,3.9,0,0,0,3.13,2.41c.31.67-1,1.73-1.74,1.91a1.66,1.66,0,0,1-1.37-.33,3.75,3.75,0,0,1-.92-1.1,2.23,2.23,0,0,1-.4-1.06,2.3,2.3,0,0,1,.15-.78l.47-1.57"/><path class="cls-1" d="M478.47,619.4l0,2.12a4.77,4.77,0,0,1-.4,2.25,2.19,2.19,0,0,1-1.91,1.14,1.85,1.85,0,0,1-1.73-1.33"/><path class="cls-1" d="M457.88,608.79c-.52,4.1,2.25,8,2.17,12.13,0,1-.48,2.18-1.45,2.16-.46,0-.87-.32-1.33-.33a7.82,7.82,0,0,0-1.36.41c-.72.14-1.42-.28-2.15-.32-1-.05-1.95.57-2.87.28a1.6,1.6,0,0,1-.83-2.28"/><path class="cls-1" d="M446.59,627.81a15.25,15.25,0,0,0,5.39,0,11,11,0,0,1,3.26-.36,3.61,3.61,0,0,0,3-.17c2.51-.76,5.12,1.37,7.71,1-2.4.51-4,2.43-6.27,3.42a9.16,9.16,0,0,1-8.13-.43C449.65,630.18,448.67,628.34,446.59,627.81Z"/><path class="cls-1" d="M442.81,586.35c2-.37,3.78,1,5.55,2a14.11,14.11,0,0,0,11.83.62c2.14-.88,4.23-2.33,6.54-2.1a6.35,6.35,0,0,1,4.57,3.29,18.93,18.93,0,0,1,1.86,5.52l1.08,4.79"/><path class="cls-1" d="M475.33,609a11.35,11.35,0,0,1,.94,5.26,38.78,38.78,0,0,0,0,5.39,1.72,1.72,0,0,0,.53,1.23"/><path class="cls-1" d="M433.53,594.11c-.56,1.87-.13,3.87.16,5.8s.42,4-.63,5.68c-1.19,1.89-3.54,2.61-5.69,3.2"/><path class="cls-1" d="M435.6,635.13C433,637.89,428.75,638,425,638l-19.39-.34a6.76,6.76,0,0,0-3.91.72,6.57,6.57,0,0,0-1.86,2.25c-8.72,14.77-13.66,31.56-22.88,46-3.14,4.93-6.76,9.56-9.56,14.69s-4.76,10.94-4.21,16.76c.18,1.87.79,3.94,2.47,4.77,1.2.59,2.64.37,4,.61,2.57.46,4.47,2.59,6.81,3.73,3.38,1.66,7.41,1.16,11,2.23,3.94,1.18,7.34,4.2,11.45,4.39,1.56.07,3.12-.29,4.69-.26a4.77,4.77,0,0,1,4.1,1.88,6.38,6.38,0,0,1,.68,2.4c.81,5.69,1.23,12.47-3.18,16.15"/><path class="cls-1" d="M479.18,667.74c5,1,8.28,5.79,12.93,7.78a27.66,27.66,0,0,1,11.62-11.84c2.18-1.16,4.59-2.08,6.21-3.94a2.23,2.23,0,0,0,.58-1c.16-.9-.61-1.67-1.29-2.28-3.05-2.75-4.69-6.17-7.21-9.24-2,1.27-3.77,3.52-5.6,5.1s-4,3.31-5.95,5A88.31,88.31,0,0,0,479.18,667.74Z"/><path class="cls-1" d="M419.8,637.69a34.2,34.2,0,0,0,2.11,3.6c.94,1.4,2,2.72,3,4.09a60,60,0,0,1,9.05,18.68"/><path class="cls-1" d="M469.79,642.76c-3.3,3.14-4.9,7.87-8.58,10.56-2.41,1.77-5.65,2.61-7.22,5.15"/><path class="cls-1" d="M429.87,638a44.82,44.82,0,0,1,11.68,9.51c3.35,3.83,6.18,8.36,10.65,10.79"/><path class="cls-1" d="M508.71,660.94l3.62,3.95c4.17,4.57,8.35,9.14,12.14,14.18,1.35,1.79,2.66,3.65,4,5.39,3.84,4.77,8.35,8.66,12.19,13.42s7.11,10.75,7.47,17.46a6.5,6.5,0,0,1-.37,3,5.71,5.71,0,0,1-1.65,1.95c-1.64,1.39-3.31,2.71-5,4"/><path class="cls-1" d="M479.17,666.76a387.15,387.15,0,0,0-42.11-2.21c-5,0-10.06.12-14.81,1.65a48,48,0,0,0-7.73,3.5c-2.79,1.47-5.78,3.22-6.84,6.19a27.32,27.32,0,0,0-.76,3.83c-.69,3.39-2.78,6.3-4.52,9.29s-3.24,6.44-2.57,9.84a16.67,16.67,0,0,0,2.51,5.41l3.77,6.09c1.5,2.43,3.07,5.24,2.29,8"/><path class="cls-1" d="M491.73,675.78c1.16,3.44-2.47,7.6-.38,10.58,1.2,1.71,3.77,2,5,3.69a4.83,4.83,0,0,1,.78,2.83c0,3.35-2,6.32-3.14,9.49-2.19,6.2-.82,13.08,1.27,19.32s4.91,12.32,5.63,18.86a40.86,40.86,0,0,1,.19,5.42,64.21,64.21,0,0,1-1.85,13.93"/><path class="cls-1" d="M541.13,724.26c-2.31,1.21-4.41,5.21-6.55,6.7-2.48,1.72-4.74,3.35-7.23,5s-3.52,3.93-6.53,3.87c-.61,0-1.38,0-1.62.57a1.59,1.59,0,0,0-.05.72A31.56,31.56,0,0,0,522.42,752c.9,1.76,2,3.54,2,5.51a2.93,2.93,0,0,1-.34,1.54,2.83,2.83,0,0,1-3.41.91,8.33,8.33,0,0,1-3-2.38"/><path class="cls-1" d="M492.11,676.85c1.8.84,2.83,2.71,3.83,4.42a64.21,64.21,0,0,0,8.82,11.78c2.77,2.94,5.82,5.61,8.76,8.38q6.12,5.77,11.67,12.11"/><path class="cls-1" d="M401,692.25l-8.9,16.13a2.36,2.36,0,0,0-.39,1.13,2.07,2.07,0,0,0,.68,1.32c2.94,3.12,7.71,3.35,11.78,4.67a9.77,9.77,0,0,1,3.85,2.09c.53.51,1,1.11,1.51,1.59a14.29,14.29,0,0,0,4.08,2.08c4.92,2.09,8.78,6.16,11.56,10.72s4.58,9.64,6.37,14.67a13.22,13.22,0,0,1,.84,3.27,11.32,11.32,0,0,1-.3,3,16.61,16.61,0,0,1-2.11,5.74,7.53,7.53,0,0,1-4.86,3.46"/><path class="cls-1" d="M521.87,760.37c1.21.34,1.64,1.84,1.61,3.09a4.53,4.53,0,0,1-.93,2.93,2.32,2.32,0,0,1-2.81.64,3.79,3.79,0,0,1-.68-.58,60.7,60.7,0,0,0-7-5.64"/><path class="cls-1" d="M428.78,750.73a7.88,7.88,0,0,0-2.89,4.61c-.48,1.79-.6,3.65-.94,5.47a2.37,2.37,0,0,1-.41,1.1c-.63.78-1.85.55-2.85.42a8.38,8.38,0,0,0-3.75.38,17.63,17.63,0,0,1-2.7.94,2.59,2.59,0,0,1-2.59-.81,1,1,0,0,1,0-1.2,1.48,1.48,0,0,1,.54-.25,11.48,11.48,0,0,0,7.45-7.28c.69-2.12.84-4.6,2.46-6.13"/><path class="cls-1" d="M521.19,767.57c1.15.38,1.4,2.07.68,3a4.11,4.11,0,0,1-3.23,1.37,8.94,8.94,0,0,1-4.5-1c-3.29-1.74-5.35-5.43-8.84-6.72"/><path class="cls-1" d="M414.83,748.11c.08,2.36.08,5-1.44,6.77a6.39,6.39,0,0,1-3.17,1.93c-.76.22-1.7.49-1.84,1.27a1.43,1.43,0,0,0,1,1.42,15.3,15.3,0,0,0,1.8.46,3.81,3.81,0,0,1,2.07,1.61"/><path class="cls-1" d="M494.28,645.32l11.28.35a21.32,21.32,0,0,1,6.57.89,12.59,12.59,0,0,1,6.51,5.74,19.22,19.22,0,0,1,2.27,8.48"/><path class="cls-1" d="M504.06,650.31a42.7,42.7,0,0,1,4.52-.3c2.17,0,4.58.22,6,1.85,1.24,1.41,1.38,3.45,1.45,5.34l.19,4.86"/><path class="cls-1" d="M394.52,649.86l-2.4.39a7,7,0,0,0-1.8.45,6.69,6.69,0,0,0-1.68,1.22,20.32,20.32,0,0,0-4.2,5.14,11.11,11.11,0,0,0-1.4,6.41"/><path class="cls-1" d="M392.84,654.08a5,5,0,0,0-4.81,3.09,12.33,12.33,0,0,0-.71,6"/><path class="cls-1" d="M510.52,662.07l9.15,0a3.86,3.86,0,0,1,1.59.22,2.64,2.64,0,0,1,1.35,1.7,7.44,7.44,0,0,1,.2,2.21q-.06,3.67-.36,7.33"/><path class="cls-1" d="M551.57,722.85c2.38,4.41,7.79,6.47,10.36,10.78a.89.89,0,0,1,.16.73c-.13.33-.58.38-.93.38l-9.66-.12a4,4,0,0,0-2.21.4c-1.32.85-1.16,2.79-.84,4.32a2.29,2.29,0,0,1-2.76-.44,8.91,8.91,0,0,1-.92-1.59,8.27,8.27,0,0,0-1.17-1.41l-5.32-5.58"/><path class="cls-1" d="M514.49,702.72c-5.26-.89-10.68.46-16-.18"/><path class="cls-1" d="M522.67,665.83a40.66,40.66,0,0,1-9.29-.28"/><path class="cls-1" d="M522.82,668a24.5,24.5,0,0,1-6.62-.3"/><path class="cls-1" d="M525.21,713.75a39.87,39.87,0,0,1-11.48,11.66c-2.71,1.8-5.7,3.31-7.79,5.8a24.1,24.1,0,0,0-2.94,5l-2.25,4.63"/><path class="cls-1" d="M404.85,638.06c3.31,2.3,5.07,6.24,6.1,10.14s1.49,7.95,3,11.7c1.16,3,3,5.76,3.4,8.92"/><path class="cls-1" d="M522.18,718q-14,.19-28-.22"/><path class="cls-1" d="M514.15,725l-18.45-.81"/><path class="cls-1" d="M493,707.61q13.16.23,26.32-.17"/><path class="cls-1" d="M493,710.36q14.81-.12,29.62.32"/><path class="cls-1" d="M492.87,714.23a302.44,302.44,0,0,1,32.15-.39"/><path class="cls-1" d="M499,702.4h-5"/><path class="cls-1" d="M388.38,663.63l-6,.33c-.91,0-1,1.33-1,2.24,0,1.28,0,2.57.15,3.84.25,2.45.94,4.87.78,7.32"/><path class="cls-1" d="M376.34,727.33a77.57,77.57,0,0,0,3.8,9.42,1.73,1.73,0,0,0,.39.6,1.87,1.87,0,0,0,1.29.36,95.6,95.6,0,0,0,9.58-.24,3.88,3.88,0,0,1,2.46.34,3.13,3.13,0,0,1,1.05,2.78,11.51,11.51,0,0,0,0,3.1"/><path class="cls-1" d="M403.52,734.1c-.93.44-1.13,1.66-1.17,2.69-.09,2.74.15,5.61-1,8.11a14.19,14.19,0,0,1-4.23,4.8q-1.81,1.47-3.7,2.8"/><path class="cls-1" d="M384.23,763.68l-5,6.64a51.88,51.88,0,0,1-3.57,4.37c-1.09,1.14-2.28,2.18-3.34,3.35-3.19,3.5-5.09,8-6.84,12.36-1.32,3.33-2.61,6.92-1.87,10.42a18.86,18.86,0,0,0,2.42,5.45l2.5,4.32a5.88,5.88,0,0,0,1.48,1.9,4.85,4.85,0,0,0,2.19.78,17.81,17.81,0,0,0,13.27-3.14"/><path class="cls-1" d="M393.17,737.7l.92,41"/><path class="cls-1" d="M538.5,730.62l-.08,9.8a29.48,29.48,0,0,1-.69,7.45,22.18,22.18,0,0,1-4,7.61,15.07,15.07,0,0,0-4.3-10.25c-2-2-4.6-3.48-6.18-5.85"/><path class="cls-1" d="M544,736.44l-.71,21.13a34.33,34.33,0,0,1-.53,5.9,17.61,17.61,0,0,1-2.63,6.25"/><path class="cls-1" d="M553.43,735a111.5,111.5,0,0,0,1.07,12.23c.49,4.83.57,9.69.65,14.54l.31,18a69.73,69.73,0,0,0,.37,7.23c.7,5.87,2.88,11.68,2.08,17.53"/><path class="cls-1" d="M545.79,739.14a80.2,80.2,0,0,0,.88,13.21,369.36,369.36,0,0,1,2.45,42.71l-.6-.09"/><path class="cls-1" d="M384,738.34q1.14,27,2.63,54"/><path class="cls-1" d="M452.17,658.42c1.36-.48,2.85.36,3.8,1.45a2.31,2.31,0,0,1,.72,2c-.22.84-1.15,1.24-2,1.49a3.24,3.24,0,0,1-2.35.07c-1.18-.58-1.29-2.19-1.23-3.51,0-.69.13-1.5.73-1.84a1.05,1.05,0,0,1,.83-.1"/><path class="cls-1" d="M465,628.49c-5.62,1.3-11.63,1.63-17.07-.3"/><path class="cls-1" d="M496.18,727l13.23.69C507,727.7,498.59,727,496.18,727Z"/><path class="cls-1" d="M394.23,779a32.65,32.65,0,0,0-10.33,24.23,8.9,8.9,0,0,0,.64,3.62,10.46,10.46,0,0,0,2.42,3c2.9,2.8,5.86,5.64,9.47,7.43,2,1,4.22,1.67,5.8,3.24.77.77,1.34,1.71,2.1,2.5,1.33,1.39,3.13,2.22,4.6,3.47,1.79,1.53,3,3.64,4.91,5.07,3,2.27,7.31,2.56,9.83,5.34,1,1.12,1.63,2.55,2.54,3.76a9.81,9.81,0,0,0,7.41,3.88"/><path class="cls-1" d="M534,755.69a72.71,72.71,0,0,0,5,12c2,3.85,4.4,7.55,5.89,11.63s2,8.75.31,12.74"/><path class="cls-1" d="M522.87,769.8l9.49,9.36,10.48,10.33q4.21,4.17,8.48,8.29a79.89,79.89,0,0,1,6.61,6.79,12,12,0,0,1,1.91,3,11,11,0,0,1,.66,4.41c-.17,7.54-3.94,14.43-8.83,20.16-6.47-2.66-12-7.11-17.37-11.6s-10.71-9.11-17-12.22-13.65-4.57-20.29-2.39c-2.69.89-5.16,2.33-7.84,3.23a39.26,39.26,0,0,1-9.28,1.56q-14,1.14-28,1.5c-6.16.16-13,.47-17.36,4.82-3.42,3.41-4.42,8.48-5.27,13.23a5.42,5.42,0,0,0,.09,3.22"/><path class="cls-1" d="M387.06,809.3q2.54,37.94,3.12,76c.12,8.1.19,16.32,2.49,24.08s7.18,15.15,14.53,18.54c4.59,2.11,9.76,2.53,14.8,2.84,14.25.87,28.55,1.14,42.82.81"/><path class="cls-1" d="M559.66,819.62l3.52,75.13c.33,7.07.58,14.54-2.78,20.77-2.72,5.06-7.59,8.72-12.9,10.91s-11.07,3-16.79,3.57c-8.28.77-16.61.89-24.92,1"/><path class="cls-1" d="M481.79,644.31c-1.8,3.78-1.89,8.13-2.94,12.19a53.4,53.4,0,0,1-2,5.67l-1.84,4.75"/><path class="cls-1" d="M486.21,644.31A26.52,26.52,0,0,0,481.73,656c-.48,3.8-.2,8-2.32,11.14"/><path class="cls-1" d="M429.59,832.59a33.19,33.19,0,0,0,3.9,12.06c2.6,4.72,3.29,10.28,3.49,15.66.14,3.92-.23,7.88.46,11.74a37.09,37.09,0,0,0,2.09,6.8c1.69,4.32,3.61,8.55,5.54,12.78,2.29,5,4.58,10,7.06,15,5.9,11.71,12.94,23,16.46,35.66"/><path class="cls-1" d="M552.19,832.14c2.86,18,1.43,36.4,3.2,54.53.73,7.49,1.94,15.42-1.23,22.24A26.47,26.47,0,0,1,549,916a23.36,23.36,0,0,1-5.95,4.67c-4,2.06-8.69,2.27-13.19,2.44l-23.74.89"/><path class="cls-1" d="M396.19,817.05l2.19,78.62a50,50,0,0,0,1.31,12,25.43,25.43,0,0,0,13.82,16.13c6.89,3.11,14.75,3,22.3,2.68q13.1-.48,26.18-1.22"/><path class="cls-1" d="M533.21,820.12c-1.21,4.37-1.11,9-1.32,13.49s-.78,9.19-3.12,13.07-6.86,6.75-11.3,5.89"/><path class="cls-1" d="M474.65,812.05c7,11.33,10.21,25.47,6.37,38.21-.89,2.93-2.12,5.74-3,8.68-5,17.36,4.49,35.81,2.33,53.74-1.19,9.79-5.77,18.81-10.26,27.6-1.49,2.92-3,6.29-1.84,9.36,1,2.6,3.65,4.12,6.12,5.44"/><path class="cls-1" d="M516.24,808c1.82,2.28,1.83,5.47,1.75,8.38q-.57,20.52-1.12,41a108,108,0,0,1-1.34,16.87c-.65,3.51-1.65,7-2.56,10.41a207.42,207.42,0,0,0-5.9,71.65"/><path class="cls-1" d="M466.93,812.11a52.69,52.69,0,0,1,2.64,11.31c1.23,10.43-.67,21.16,1.61,31.41.69,3.1,1.74,6.1,2.64,9.14,1.16,4,2,8,2.93,12.1"/><path class="cls-1" d="M480.43,969.17c3.49,0,6.21-2.84,9.1-4.79a42.47,42.47,0,0,1,7.46-3.7,46.27,46.27,0,0,1,11.38-3.62c4-.54,8.22,0,11.45,2.35a7.29,7.29,0,0,1,2.82,3.6,8,8,0,0,1,.24,2.92,15.94,15.94,0,0,1-8.73,12.88c-3.69,1.8-7.93,2.07-12,2.07-7.92,0-15.85-.88-23.76-.36-3.52.23-7.06.73-10.54.15s-7-2.51-8.31-5.76a2.44,2.44,0,0,1-.23-1.32c.18-1.1,1.49-1.57,2.6-1.69,2.19-.23,4.48.09,6.53-.72s3.82-3,6.15-3.27C476.61,967.65,478.29,969.2,480.43,969.17Z"/><path class="cls-1" d="M405.63,753.69a2.76,2.76,0,0,0,2.79,4.63"/><path class="cls-1" d="M391.1,731.34q1.08,2.86,1.95,5.79"/><path class="cls-1" d="M385.22,767.58c-2.18,4.5-2.29,9.69-2.35,14.69a8.82,8.82,0,0,0,1.94,6.73l1.25,1.84"/><path class="cls-1" d="M383.48,812.35l.38,29.54a15.52,15.52,0,0,0,.79,5.68,5.25,5.25,0,0,0,4.22,3.47"/><path class="cls-1" d="M378,814.51l.77,28.62c.1,3.56.3,7.4,2.52,10.19a8.44,8.44,0,0,0,8,2.95"/><path class="cls-1" d="M397.1,851.69a271.13,271.13,0,0,0,38-1.05"/><path class="cls-1" d="M436.6,855.19l-39.5,1.12"/><path class="cls-1" d="M470,848.55h11.56"/><path class="cls-1" d="M479.9,853.78a39.41,39.41,0,0,0-8.82.08"/><path class="cls-1" d="M527.35,815.51a4.08,4.08,0,0,0-.85,2c-1.68,7.6-.85,15.63-2.9,23.13a11,11,0,0,1-2.05,4.34,4.84,4.84,0,0,1-4.26,1.82"/><path class="cls-1" d="M380.94,737.63q-2.12,17.36-2.68,34.85"/><path class="cls-1" d="M469.23,952.05c-1-1.12-3-.63-4,.55a9.24,9.24,0,0,0-1.47,4.3,94.84,94.84,0,0,1-5,16.22"/><path class="cls-1" d="M475,954.71l8.42,13.86"/><path class="cls-1" d="M473.77,981.42l2.6,7.85a31.15,31.15,0,0,0,3,7,10.48,10.48,0,0,0,5.82,4.67c4.12,1.11,8.3-1.27,12.51-1.94,2.53-.4,5.11-.19,7.65-.4s5.21-.94,6.93-2.83c2.84-3.12,1.54-8.94-2.36-10.55-1.76-.73-3.82-.69-5.4-1.74a4.61,4.61,0,0,1-1.87-2.49"/><path class="cls-1" d="M474.6,954.65a58.74,58.74,0,0,1,7.35-6.1,16.46,16.46,0,0,1,5.78-2.89c3.1-.68,6.29.22,9.33,1.11,4,1.15,8.31,2.61,10.28,6.24"/><path class="cls-1" d="M375.79,795.51c-3.05,2.06-6,4.87-6.52,8.5,1.38.77,3.17.15,4.34-.9a36.4,36.4,0,0,0,3-3.66c1.15-1.33,6.71-4.35,6-6.18C381.63,790.44,377.17,794.58,375.79,795.51Z"/><path class="cls-1" d="M498.6,730.23l7.13.52C504.47,730.75,499.86,730.23,498.6,730.23Z"/><path class="cls-1" d="M542.14,733.69c-4.84,7.93-2.34,18.5-6.17,27"/><path class="cls-1" d="M514.07,991.56c-1.73,2.19-4.6,3.19-7.38,3.46s-5.59-.1-8.38-.07c-6.8.06-13.86,2.34-20.2-.11"/><path class="cls-1" d="M482.2,966.16c7.79-5,16.06-10.25,25.33-10.75"/><path class="cls-1" d="M505.36,764.16a12.72,12.72,0,0,1-6-4.44"/><path class="cls-1" d="M409.31,718.56c-2.83.65-4.91,3.22-5.79,6s-.79,5.74-.69,8.64"/><path class="cls-1" d="M407.2,716.79a16.91,16.91,0,0,0-6.32,9.59,29.7,29.7,0,0,0-.36,7.54"/><path class="cls-1" d="M429.4,741.57l.48-14.35c.05-1.49,0-3.14-1.32-4.22"/><path class="cls-1" d="M431.13,744.74a105.85,105.85,0,0,0,1.58-18.86c0-1.18.16-2.61,1.54-3.13"/><path class="cls-1" d="M380.21,778.47a21.12,21.12,0,0,0-7.23,13.1"/><path class="cls-1" d="M775.87,781.54c1.23,6.31-2.89,12.29-6.79,17.39-4.09,5.35-8.22,10.75-13.34,15.14-3,2.56-6.4,4.9-8.11,8.45"/><path class="cls-1" d="M722.8,748.19a104.91,104.91,0,0,1-9.1,8.67,5.68,5.68,0,0,1-2.84,1.56,1.63,1.63,0,0,1-1.43-.44,2,2,0,0,1-.35-1.36,8.06,8.06,0,0,1,.33-2.07"/><path class="cls-1" d="M494.1,839.3c4.77,5.19,14.23,4.81,18.57-.73"/><path class="cls-1" d="M445.23,849.79a12.17,12.17,0,0,0,13.71-2.72"/><path class="cls-1" d="M763.44,934.9a86.91,86.91,0,0,1,5.9-49.63"/><path class="cls-1" d="M548.16,944.12a74.67,74.67,0,0,1-4.37-41.61"/><path class="cls-1" d="M757.12,929.28a151.33,151.33,0,0,0-2.94-47.4"/><path class="cls-1" d="M534.15,948.21A99.29,99.29,0,0,0,529,898.87"/><path class="cls-1" d="M746.1,927.43a143.76,143.76,0,0,0,1.65-35.94"/><path class="cls-1" d="M539.19,946.3a460.4,460.4,0,0,1,3.12-60.65"/><path class="cls-1" d="M769.06,921.63a28.84,28.84,0,0,1,8.63-28.76"/><path class="cls-1" d="M557,936.74c-10-5.77-12.83-21-5.56-30"/><path class="cls-1" d="M689,927.39A110.07,110.07,0,0,0,686.19,888"/><path class="cls-1" d="M526.08,938.59a27.63,27.63,0,0,0-10.63-30.35"/><path class="cls-1" d="M696.66,918a28.37,28.37,0,0,1,5.43-30.71"/><path class="cls-1" d="M749.31,925.36a50.78,50.78,0,0,0-11.1-50.7"/><path class="cls-1" d="M696.13,921.23a51.63,51.63,0,0,1,3.28-45.58"/><path class="cls-1" d="M533.84,948.42c1.08-10.94,2.16-22,.23-32.86s-7.28-21.51-16.54-27.44"/><path class="cls-1" d="M425.69,941.28c-2.65-5.75-2.25-12.38-3.38-18.61a38.3,38.3,0,0,0-7.62-16.91"/><path class="cls-1" d="M640.52,880.86a166.67,166.67,0,0,1-.89,36.95c1.43-12.53,4.3-27.42,11.85-37.53"/><path class="cls-1" d="M430.54,938.84a55.19,55.19,0,0,1,.61-43.81"/><path class="cls-1" d="M436,942.06a25.55,25.55,0,0,1,3.64-25.22"/><path class="cls-1" d="M417.53,937.88a24,24,0,0,0-5.28-22.76"/><path class="cls-1" d="M431.77,935.49c-.54-5.42-1.07-10.9-.26-16.28s3.12-10.74,7.37-14.14"/><path class="cls-1" d="M450,600.56a15.48,15.48,0,0,0-12.52-1.08"/><path class="cls-1" d="M460.8,601.2a12.2,12.2,0,0,1,11-2.55"/><path class="cls-1" d="M431.56,609.35a16.11,16.11,0,0,0-2-.12,3.3,3.3,0,0,0-1.43.21,1.35,1.35,0,0,0-.85,1.08"/><path class="cls-1" d="M432.49,627a.58.58,0,0,0,.67.2,1.45,1.45,0,0,0,.61-.43,5.31,5.31,0,0,0,1.05-1.75"/><path class="cls-1" d="M430.79,614a1.82,1.82,0,0,0-1,1.69,5.06,5.06,0,0,0,.61,1.76,6.11,6.11,0,0,1,.34,3.82"/><path class="cls-1" d="M433.86,603.28a3.22,3.22,0,0,0-.84,2.6,12.07,12.07,0,0,0,1.34,5.27c1.09,2.11,2.83,4,3,6.37a2.77,2.77,0,0,1-.94,2.48,2.34,2.34,0,0,1-1.09.38,2,2,0,0,1-1.67-.55,1.21,1.21,0,0,1,0-1.64"/><path class="cls-1" d="M710.08,631.73a45,45,0,0,0,10.46,8.36,20,20,0,0,0,13,2.43,18.81,18.81,0,0,0,11.28-7.45,30.56,30.56,0,0,0,5.15-12.71"/><path class="cls-1" d="M473.46,622.7c-.84,1.34-.61,3.06-.35,4.62l1,6.1a6.07,6.07,0,0,0,1,2.81,2.05,2.05,0,0,0,2.66.61c.82-.59.5-2.23-.51-2.21"/><path class="cls-1" d="M448.2,583.35a4.06,4.06,0,0,0,2.49,2.21c5.27,2,11.07-1.92,16.68-1.26a10.4,10.4,0,0,1,8.2,6.16c2.08,4.92.21,11.13,3.24,15.53.33.47,1.07.91,1.4.44"/><path class="cls-1" d="M449.08,580c.49,2.2,3.08,3.23,5.33,3.33,5.95.25,12.26-3.31,17.56-.61"/><path class="cls-1" d="M451.11,578.32c1.87,2.24,5.28,2.3,8.13,1.72s5.79-1.6,8.6-.85"/><path class="cls-1" d="M434.78,621.78l6.36,8.94a23.47,23.47,0,0,0,4.07,4.76c2.24,1.82,5.05,2.76,7.8,3.65,2.17.71,4.53,1.41,6.69.67,2-.68,3.33-2.41,4.58-4.06l7.12-9.37,4.32-5.68"/><path class="cls-1" d="M432.8,636.68A8,8,0,0,0,438,625.89"/><path class="cls-1" d="M466.48,642.07a5.5,5.5,0,0,1-2.18-5"/><path class="cls-2" d="M816.56,788.88a7.42,7.42,0,0,0-1.29,2.27,15.16,15.16,0,0,0-.39,1.47l-3.22,13.89a13,13,0,0,1-1.52,4.21c-1.65,2.5-4.81,3.54-6.9,5.68s-2.94,5.2-3.7,8.11l-2.88,11"/><path class="cls-2" d="M816.16,789a23.18,23.18,0,0,1,7.32,1.79,1.51,1.51,0,0,1,.84.64,1.57,1.57,0,0,1,0,1.09l-4.12,16.15a12.23,12.23,0,0,0-.56,3.88c.22,2.87,2.42,5.2,3.31,7.94a10.28,10.28,0,0,1,.43,2.25"/><path class="cls-2" d="M812.13,804.4a14.88,14.88,0,0,0,8.67,2.23"/><path class="cls-2" d="M811.64,807q4.25.9,8.43,2"/><path class="cls-2" d="M799.94,823.5q8.23,1.68,16.4,3.68c1,.25,2,.5,3,.83"/><path class="cls-2" d="M815.47,790.64a25.55,25.55,0,0,0,8.87,2"/><path class="cls-2" d="M815,792.35a33.77,33.77,0,0,0,8.86,2"/><path class="cls-1" d="M637.18,619.63a36.58,36.58,0,0,0-2.94,9.87"/><path class="cls-1" d="M652.57,620a25.75,25.75,0,0,1,1.86,9"/><path class="cls-3" d="M670,263.44l1.8-4.9a17.27,17.27,0,0,1,2.33-4.76c.49-.64,1.08-1.21,1.51-1.9,1.35-2.16.92-4.91,1-7.46.07-5.58,2.55-11.34.58-16.57-1.62-4.31-5.94-7.15-7.61-11.44-.91-2.33-1-4.9-1.49-7.35-.94-4.29-3.36-8.12-6.17-11.51a12.4,12.4,0,0,0-4.92-4c-2-.76-4.59-.39-5.82,1.37a6,6,0,0,0-4.91,6.75c0,.19-.22.05-.3-.13s0-.41-.16-.56-.57-.09-.69.16a1.21,1.21,0,0,0,0,.82l1.14,6.25a4.48,4.48,0,0,0,.51,1.6,2.48,2.48,0,0,1,.6,1,2.06,2.06,0,0,1-.41,1.09,4.56,4.56,0,0,0,1.1,5.66,14.05,14.05,0,0,1-2,2.53,25.52,25.52,0,0,0-2.5,3.67c-2.24,3.72-4.51,7.55-5.18,11.84a33.74,33.74,0,0,0,.2,8.86l.6,5.31a12.93,12.93,0,0,0,.69,3.39c.36.88.84,1.74,1.16,2.64"/><path class="cls-3" d="M641.94,261.87l.68,3.85a15,15,0,0,0,1.6,5.23,16.68,16.68,0,0,1,1.37,2.25,8,8,0,0,1,0,4.38l-2.51,12.76c-.56,2.83-.8,6.44,1.68,7.92a4.81,4.81,0,0,0,5-.4,14.2,14.2,0,0,0,3.55-3.85,3.69,3.69,0,0,0,4.53,2.23,6,6,0,0,0,3.74-3.91,18.13,18.13,0,0,0,.72-5.55l.23-9.8a1.38,1.38,0,0,0,2,.21,4.1,4.1,0,0,0,1.14-1.9l2.56-7"/><path class="cls-3" d="M647.21,210.36a1.26,1.26,0,0,0,1.65-.4c.21-.33.34-.83.73-.86a.8.8,0,0,1,.59.3c.71.67,1.72,1.46,2.53.92.53-.35.61-1.06.79-1.67.56-1.84,2.85-3.13,4.53-2.19a7.62,7.62,0,0,0,1.66,1,3,3,0,0,0,1.66-.15c1.59-.47,3.28-1.19,4-2.67a3.37,3.37,0,0,0,.36-1.56"/><path class="cls-3" d="M652.25,210.62c.27.84-.42,1.64-.86,2.39a4.72,4.72,0,0,0-.5,3.33A.71.71,0,0,1,650,216a4.93,4.93,0,0,1-.27-1,11.76,11.76,0,0,0-.83-1.76,4.36,4.36,0,0,1-.17-3c0-.06.06-.14.13-.15s.1.13,0,.12"/><path class="cls-3" d="M653.41,209.61a3.21,3.21,0,0,0,3.84,1.08,4.62,4.62,0,0,0,2.33-3.19"/><path class="cls-3" d="M646.71,263.31a24.8,24.8,0,0,1-1.12,9.89"/><path class="cls-3" d="M647.91,217.59a7.59,7.59,0,0,1-.48,4.08c-.49,1.18-1.27,2.22-1.87,3.36a5.23,5.23,0,0,0-.68,3.7c.15.58.45,1.1.64,1.67a8.71,8.71,0,0,1,.3,2.33,30.31,30.31,0,0,1-.14,5.22,9.94,9.94,0,0,0-.22,2.76,10.19,10.19,0,0,0,.51,1.71,14.3,14.3,0,0,1,.32,8.12c-.14.53-.3,1.06-.39,1.6a10.29,10.29,0,0,0,0,2.48c.07.88.16,1.75.25,2.63"/><path class="cls-3" d="M657.52,207.52a.64.64,0,0,0-.45-.58,1.62,1.62,0,0,0-.79,0,2,2,0,0,0-1.06.42,1.29,1.29,0,0,0,.06,1.81,1.52,1.52,0,0,0,1.87,0,1.83,1.83,0,0,0,.55-1.84"/><path class="cls-3" d="M646.71,263.31a68.76,68.76,0,0,0,3.9,22.37c.36,1,1,2.23,2.12,2.12a2,2,0,0,0,1.45-1.35c.84-2,.15-4.32.27-6.51.1-1.84.78-3.62.88-5.47.19-3.23-1.4-6.37-1.2-9.6"/><path class="cls-3" d="M645.83,253.23c.63.38.74,1.23,1,1.91s.89,1.42,1.6,1.23c.38-.09.64-.42,1-.58a1.63,1.63,0,0,1,1.69.32,3.74,3.74,0,0,1,1,1.49c.19.45.44,1,.92,1s.93-.54,1.18-1.05a14.51,14.51,0,0,1,2.67-3.74.87.87,0,0,1,.72-.36.79.79,0,0,1,.5.55c.6,1.63-.52,3.71.53,5.09a3.25,3.25,0,0,0,2.9.93,13,13,0,0,1,3.17-.21,3.56,3.56,0,0,0,1.16.12c1.23-.2,1.39-1.9,2.2-2.84a2.26,2.26,0,0,1,2.43-.61,9.43,9.43,0,0,0,1.09.47.82.82,0,0,0,1-.45"/><path class="cls-3" d="M648.71,256.26c0,2.7.17,5.38.39,8.07,0,.27.12.61.38.62s.4-.36.42-.65l.3-4.55a10.14,10.14,0,0,1,.3-2.2,1.17,1.17,0,0,1,.53.93,21.14,21.14,0,0,1,.37,4.83,1.59,1.59,0,0,0,.14.92.52.52,0,0,0,.8.13.68.68,0,0,0,.11-.29,15.52,15.52,0,0,0,.38-4.46c0-.35-.05-.7-.09-1.06"/><path class="cls-3" d="M661.3,260.21a8.85,8.85,0,0,1-.57,5.23c-.1.29-.18.67.06.87a.53.53,0,0,0,.61,0,1.68,1.68,0,0,0,.4-.51l.87-1.48a4.94,4.94,0,0,0,.82-2c.08-.89-.35-1.59-.16-2.47"/><path class="cls-3" d="M663.49,262.3a9.11,9.11,0,0,1-.26,3.93c-.15.42-.34,1,0,1.23a.77.77,0,0,0,.75,0,2.38,2.38,0,0,0,1.22-1.53,7.11,7.11,0,0,0,.19-2l0-4"/><path class="cls-3" d="M654.54,284.58c.25.7.21,1.48.46,2.19s1,1.34,1.69,1a1.78,1.78,0,0,0,.62-.57,12.65,12.65,0,0,0,2.81-5c.24-1.13.16-2.31.31-3.46a14.64,14.64,0,0,1,.57-2.46c.88-3,1.77-5.65,2.91-8.59"/><path class="cls-3" d="M647.11,199.54c.32,0,.56-.25.82-.44a3.32,3.32,0,0,1,2.07-.4l1.72,0a1.08,1.08,0,0,1,1.18,1.32,6.91,6.91,0,0,1,0,2.4.2.2,0,0,1-.06.12s-.11,0-.11,0,.08-.06.08,0"/><path class="cls-3" d="M655.66,193.58a1.39,1.39,0,0,1-.33,1,4.94,4.94,0,0,1-.83.75,3.34,3.34,0,0,0-1.47,2"/><path class="cls-3" d="M654.19,196.9a3.48,3.48,0,0,1,1.74-.77,5.82,5.82,0,0,0,1.25-.2c.16-.06.31-.15.47-.2a1.23,1.23,0,0,1,1.14.23,1.22,1.22,0,0,1,.4,1.08"/><path class="cls-3" d="M649.29,208.51a9.65,9.65,0,0,1-.09-3.47,6.63,6.63,0,0,0,.29-1.46c0-.32-.08-.64-.11-1a1.39,1.39,0,0,1,.17-.94.68.68,0,0,1,.85-.24,1.17,1.17,0,0,1,.31.35,6.68,6.68,0,0,1,1.23,2.78c0,.33,0,.67.06,1a17.08,17.08,0,0,0,.45,1.74,2.09,2.09,0,0,1-.21,1.73"/><path class="cls-3" d="M660.8,236.72a3.38,3.38,0,0,0,5.28,1.36"/><path class="cls-3" d="M656.09,227.09a4.75,4.75,0,0,0,3.69,1.26,2.28,2.28,0,0,0,.9-.16,2.37,2.37,0,0,0,.61-.44l.58-.5"/><path class="cls-3" d="M652.59,230.07a5.31,5.31,0,0,0,1.92,2.62,4.18,4.18,0,0,0,3.13.74"/><path class="cls-3" d="M659.84,220.44a1.69,1.69,0,0,0,1.08,1,4.54,4.54,0,0,0,1.52.19,5.22,5.22,0,0,0,2.15-.34,3.93,3.93,0,0,0,1.49-1.26"/><path class="cls-3" d="M665.6,231.35a5.91,5.91,0,0,0,3.62-.87,4.77,4.77,0,0,0,2.25-3.26"/><path class="cls-3" d="M650.34,219.58a4.35,4.35,0,0,0,5.34,1.21"/><path class="cls-3" d="M647.9,235.75a.9.9,0,0,0,.09.53,3.72,3.72,0,0,0,5,1.85"/><path class="cls-3" d="M648.81,224.8a3.06,3.06,0,0,0,3.36,1.43,1.81,1.81,0,0,0,.59-.21c.52-.33.72-1,1.28-1.29"/><path class="cls-3" d="M652.11,214.64a2.12,2.12,0,0,0,.92.7,2.82,2.82,0,0,0,1.39.3,3.75,3.75,0,0,0,1.28-.44l.9-.44"/><path class="cls-3" d="M654.64,216.46a1.49,1.49,0,0,0,1.57.86,2.4,2.4,0,0,0,1.58-1"/><path class="cls-3" d="M658.15,214.56a.85.85,0,0,0,.8.41,1.62,1.62,0,0,0,1.65-1.36"/><path class="cls-3" d="M654.71,212a2.5,2.5,0,0,0,2.25.41,2.46,2.46,0,0,0,1.6-1.63"/><path class="cls-3" d="M658.09,213.26a3.6,3.6,0,0,0,2.47-3.7"/><path class="cls-3" d="M639,245.76a.94.94,0,0,0,.82,0,2.6,2.6,0,0,0,.7-.49,2.33,2.33,0,0,0,1-1.57"/><path class="cls-3" d="M638.65,238.42a.46.46,0,0,1,.15.43.71.71,0,0,0,.79-.15A1.83,1.83,0,0,0,640,238"/><path class="cls-3" d="M638.44,235.1a.78.78,0,0,0,1,.43,2.25,2.25,0,0,0,.93-.88,7.7,7.7,0,0,0,1-1.61"/><path class="cls-3" d="M640.91,255.81a3.1,3.1,0,0,0,2.61-1.42,7.15,7.15,0,0,0,1.39-2.91,16.47,16.47,0,0,0-.17-9.1"/><path class="cls-3" d="M648.91,273.6a1.93,1.93,0,0,0,2,1.63,2.53,2.53,0,0,0,1.7-1.08,7.84,7.84,0,0,0,.89-1.87"/><path class="cls-3" d="M656.46,275.11a2.31,2.31,0,0,0,1.56-.39,3.93,3.93,0,0,0,1.84-3.47"/><path class="cls-3" d="M655.13,278.92a1.91,1.91,0,0,0,2.19.31,4.63,4.63,0,0,0,1.72-1.6,7.85,7.85,0,0,0,1.68-3.89"/><path class="cls-3" d="M655.3,283.17a2,2,0,0,0,2.05,1.28A2.27,2.27,0,0,0,659,283a6.42,6.42,0,0,0,.38-2.19"/><path class="cls-3" d="M654.56,284.65c-.3,3.13-.71,6.24-1.25,9.34"/><path class="cls-3" d="M655.77,208.11c-.12-.12-.36,0-.32.21a.31.31,0,0,0,.41.19l0-.43"/><path class="cls-1" d="M579.66,365.74c1.44,0,3.11,0,4,1.19,2,2.64-2.6,5.25-5.92,5.41-53.05,2.59-106.19,2.35-159.3,2.12l-173.58-.79c-8.17,0-37.74,4.17-42.73-1.89,5.52-6.79,19.16-3.94,26.73-3.88q19.11.17,38.24.25,38.24.18,76.49.13,75.65-.09,151.3-1.11Q537.28,366.6,579.66,365.74Z"/><path class="cls-1" d="M274.18,367.73c2.82-9.25,5.87-18.89,12.69-25.75,6.5-6.53,15.56-9.69,24.3-12.62,74.73-25,149.89-48.76,225-72.47l41.28-13"/><path class="cls-1" d="M282.57,367.9c.52-7.69,1.31-16,6.51-21.72,3.87-4.26,9.56-6.29,15-8.17l82.07-28.26c42.72-14.71,85.48-29.44,129.1-41.25,20.58-5.58,41.56-10.58,60.52-20.34,1.76-.9,3.3-3.9,1.36-4.25"/><path class="cls-1" d="M582.36,248.08a63.15,63.15,0,0,1-14.7,12.69c-2.78,1.7-5.42,5-8,7-3.72,2.88-6.88,4.89-10.06,8.35a161,161,0,0,1-14.21,13.17L501.52,318.2c-2,1.71-4,3.49-5.2,5.86a16.93,16.93,0,0,0-1.32,5.07,67.05,67.05,0,0,0,1.15,24.93"/><path class="cls-1" d="M489.16,352.26l.06-19.58c0-4,.07-8.14,1.95-11.66,1.78-3.34,5-5.65,8-7.93,13-9.81,24.83-21.15,36.56-32.5a93.39,93.39,0,0,1,9.39-8.29c4.17-3.05,7.38-6.13,11.54-9.19,5.57-4.1,11.58-8.67,16.77-13.25,2-1.77,3.26-2.26,5.19-3.73"/><path class="cls-1" d="M471.74,349.35a905.29,905.29,0,0,0,109.81,15.86"/><path class="cls-1" d="M472.15,356.55c24.25,4.48,52.92,7.84,77.51,9.76"/><path class="cls-1" d="M471.74,349.35a15.14,15.14,0,0,0-3.75-1.13,5.3,5.3,0,0,0-2.56.29,3.85,3.85,0,0,0-2,4.39,5.41,5.41,0,0,0,3.52,3.58,9.09,9.09,0,0,0,5.17.07"/><path class="cls-1" d="M579.2,252.8c2.67,35.5,3.58,70,2.87,105.62-.05,2.37-.21,5-1.92,6.63"/><path class="cls-1" d="M592,250.4c-2.48,4.08-2.46,9.15-2.35,13.93l2,93.83a7.34,7.34,0,0,0,.51,3.09c.24.49.59.92.85,1.39a4.71,4.71,0,0,1-3.32,6.57c-2.35.34-4.52-1.19-6.41-2.63l-2.6-2"/><path class="cls-1" d="M593.8,364.52a6.18,6.18,0,0,0,3.72-.3c.89-.48,1.88-1.43,2.73-.87a2,2,0,0,1,.58,1.76l-.11,7.07a.93.93,0,0,1-1.22-.16c-.33-.31-.52-.73-.82-1.07-.95-1.09-2.62-1-4.07-.95s-3.12.16-3.79-1.11"/><path class="cls-1" d="M833.7,355.24l155.12-7c2.78-.12,6.15.06,7.51,2.49s-3.11,5.66-4,3"/><path class="cls-1" d="M759.66,358.62l72.17-3.28"/><path class="cls-1" d="M600.9,365.79l153-6.94"/><path class="cls-1" d="M754.66,364.8c-51.35,2.9-102.52,3.09-153.91,5.41"/><path class="cls-1" d="M993.28,354.54q-78.91,2.26-157.77,6l-7,.34-2,.09q-33.81,1.65-67.6,3.57"/><path class="cls-1" d="M588.83,250c1.95-.05,3.31-.16,5.25-.3-.23-1.42.49-3.36-.8-4a2.37,2.37,0,0,0-1.24-.14l-1,0"/><path class="cls-1" d="M581.45,249.94c1.13,0,2.27.07,3.4.08"/><path class="cls-1" d="M665.71,262.36c26.89,6.83,53.44,13.21,80.43,19.78l89.43,21.75c14.5,3.52,28.61,7.38,43,11.17,9.27,2.43,19.17,5.25,25.32,12.6,2.79,3.34,4.58,7.38,6.34,11.37l5.52,12.48"/><path class="cls-1" d="M652.94,259.08l8.09,2.08"/><path class="cls-1" d="M598.73,245.84a98.94,98.94,0,0,1,16.8,3.26q12.51,3.41,25.07,6.7l7.9,2.06"/><path class="cls-1" d="M664.64,267.45c38.57,9.68,76.77,19.25,115.44,29.08l16.23,4.13c17.46,4.44,35,8.88,52.75,11.68,8.86,1.39,17.15,4.7,25.76,7.21,8.2,2.39,16.65,4.91,23.22,10.36s11,14,8.13,22"/><path class="cls-1" d="M652.47,264.34c2.67.67,5.23,1.06,7.9,1.73"/><path class="cls-1" d="M594.08,249.72c18.34,4.67,36.32,9.2,54.63,13.79"/><path class="cls-1" d="M670.11,362.47c-.18-6.84-.37-13.81-2.64-20.27-2.89-8.22-8.89-14.92-14.74-21.38l-32.35-35.71c-3.32-3.66-7-7-10.5-10.43-2.25-2.2-4.5-4.39-6.68-6.67a136.43,136.43,0,0,1-12.38-15"/><path class="cls-1" d="M594.25,250.13c3,5.86,7.47,9.75,12.18,14.37a843.09,843.09,0,0,1,59.2,64.3,47.09,47.09,0,0,1,6,8.39c3.7,7.22,3.54,15.73,3.29,23.84,0,.4-.1.9-.49,1"/><path class="cls-1" d="M578,372.32c1.48-.15,2.76,1.67,4,2.46a6.14,6.14,0,0,0,3.27.6l4,0a5.77,5.77,0,0,0,2.74-.45c1.1-.58,1.74-1.81,2.81-2.44.55-.33,1.2-.48,1.76-.79s1.07-.64,1-1.29"/><path class="cls-1" d="M601.55,545.3a3,3,0,0,1,1.3.16,2.94,2.94,0,0,1,1.1,1.06,33,33,0,0,1,5.63,14.06q-17.52.48-35,.29c-.4,0,1.27-8.32,1.48-9,.87-2.92,1.23-5.35,4.23-5.93C586.9,544.62,594.76,545.5,601.55,545.3Z"/><path class="cls-1" d="M574.52,560.64l-.25,23.16a23.57,23.57,0,0,0,.32,5.11,24.37,24.37,0,0,0,1.17,3.63l5.12,13.3a236.54,236.54,0,0,0,23.67-.14c2.79-6,5.3-12.3,5.5-18.91,0-1.19,0-2.38,0-3.57l-.76-22.58"/><path class="cls-1" d="M575.36,590.31c1.23.38,2.12-1.1,3.16-1.86a6.31,6.31,0,0,1,3.46-.84q10.54-.43,21.08-.53a3.8,3.8,0,0,1,2,.35,6.13,6.13,0,0,1,1.23,1.26,4.86,4.86,0,0,0,3.39,1.52"/><path class="cls-1" d="M591.82,572.82a7.28,7.28,0,0,0-1.39,5.22,4.67,4.67,0,0,0,.93,2.56,5.54,5.54,0,0,0,4,1.59,10.77,10.77,0,0,0,5.1-.71,3.44,3.44,0,0,0,1.68-1.39,4.08,4.08,0,0,0,.33-1.83,11.21,11.21,0,0,0-.18-2.25C601.34,571.43,595,568.78,591.82,572.82Z"/><path class="cls-1" d="M600.51,572.79l6.06-4.76c1.94-1.52,3.87-3,5.87-4.49,4.48-3.26,9.22-6.13,14-8.95a7.65,7.65,0,0,1,2.22-1,5.54,5.54,0,0,1,2.49.17c2.11.57,4.27,2.3,4,4.48a1.64,1.64,0,0,1-.67,1.25,1.68,1.68,0,0,1-1,.21c-1.15,0-2.24-.58-3.39-.56a6.61,6.61,0,0,0-2.64.82,150,150,0,0,0-25.69,15.48"/><path class="cls-1" d="M580.28,403.09c1,1.31,1,3.11,1,4.76-1.19,45.95,3.52,91.88,2.6,137.83"/><path class="cls-1" d="M595.35,402.57Q595.59,454.31,597,506c.35,13.19.77,26.37,1.75,39.52"/><path class="cls-1" d="M580.09,402.88a3.77,3.77,0,0,1,2.13-.42h12.23c.37,0,.87.13.84.5"/><path class="cls-1" d="M582.48,375a47.06,47.06,0,0,1,.35,8.64,1.38,1.38,0,0,0,.08.73c.24.48.88.53,1.42.51l6.36-.16a2.67,2.67,0,0,0,1.16-.22,2.11,2.11,0,0,0,.83-1.16,6.55,6.55,0,0,0-.12-4.79c-.51-1.19-1.43-2.07-1.21-3.35"/><path class="cls-1" d="M582.83,384a13,13,0,0,1-1.68,5.64c-.26.48-.48,1.12-.12,1.53a1.41,1.41,0,0,0,1.09.29c4-.1,7.91-.29,11.85-.56a1,1,0,0,0,1.2-1.1,8.79,8.79,0,0,0,0-3.54,3.11,3.11,0,0,0-2.46-2.26"/><path class="cls-1" d="M580.93,391.88c-1.26,1.27-1.22,3.29-1.09,5.08l.43,5.89.36-.26"/><path class="cls-1" d="M594.79,390.74c1.25,1,1.48,2.78,1.54,4.38a52.9,52.9,0,0,1-.1,6,1.83,1.83,0,0,1-.61,1.48"/><path class="cls-1" d="M593,383.12c5.23-2.05,10.89-.7,16.31-2.16,2.12-.57,4.11-1.54,6.2-2.17a36.16,36.16,0,0,1,9.9-1.15c9.41-.13,18.82.45,28.21-.08s18.89-2.25,27.19-6.67a7.77,7.77,0,0,0,3.69-3.35"/><path class="cls-1" d="M513.4,357c21.21.37,47.17.76,68.38,1.12"/><path class="cls-1" d="M591.81,358.13q39.09,2.25,78.27,2.36"/><path class="cls-1" d="M675.08,360.09c9.55,0,25.43.36,35,.75"/><path class="cls-1" d="M491.07,359.72a18.14,18.14,0,0,0-4.14,1.32l-14.86,5.3a3.83,3.83,0,0,0-1.82,1"/><path class="cls-1" d="M351.66,395.51c-11.89-1.33-23.74-3.09-35.53-5.35s-23.53-5-35.45-6.56c-18.29-2.38-37-2-54.88-6.65-1.08-.29-2.35-.78-2.56-1.89s1.91-1.76,1.92-.64"/><path class="cls-1" d="M582.48,385.87c-70.81,8.42-142.38,16.82-213.13,11.32"/><path class="cls-1" d="M585,606.47q.78,108.45,1.59,216.88l.33,44.22a13.29,13.29,0,0,0,.6,4.78,3.26,3.26,0,0,0,2.28,1.91,22,22,0,0,0,8.72,1,2.79,2.79,0,0,0,2.61-1.72,13.2,13.2,0,0,0,.61-4.81c.1-28.48-.35-57-.79-85.41l-2.8-177.44"/><path class="cls-1" d="M272.76,398.91A399.09,399.09,0,0,0,316,400.59c6-.08,12.11-.27,17.85-2.08,7.09-2.23,13.26-6.82,20.32-9.17,6.39-2.12,13.24-2.32,19.95-2.88a176.1,176.1,0,0,0,51.08-12c5.33-2.13,9.91-4.25,15.26-6.3,8.9-3.41,17.93-6.89,25.49-12.69"/><path class="cls-1" d="M223.71,375.63c-.33,3.82-.16,8.57,3.27,10.26a20,20,0,0,0,3.71,1c3,.8,5.42,3,8.06,4.67,5.21,3.26,11.44,4.43,17.52,5.35,4.83.73,9.67,1.33,14.53,1.83"/><path class="cls-1" d="M891.75,367.56c22.28-.32,44.23-6.14,65.82-11.91"/><path class="cls-1" d="M835,369.33a82.77,82.77,0,0,0,10,.16c7.11-.39,14.1-2.14,21.21-2.55,6.39-.37,12.79.34,19.19.56.88,0,1.77.05,2.66.06"/><path class="cls-1" d="M762.41,367.74c5.06,0,11-.47,16.65-.66a401.57,401.57,0,0,1,46.79,1.49"/><path class="cls-1" d="M732.4,365.91c7.79,2,13.24,1.95,21.29,2"/><path class="cls-1" d="M544.47,361.4c10.21.35,26.72.59,36.94.54"/><path class="cls-1" d="M592.47,361.7c26,.6,51.63.42,77.61-.53"/><path class="cls-1" d="M762.22,364.37a70.24,70.24,0,0,0,8.22,35.2c2.26,4.2,5,8.24,8.85,11.07,4.84,3.58,11.1,4.93,17.11,4.52,8.49-.58,16.9-4.82,21.57-11.93,3.54-5.39,4.77-11.93,5.75-18.3Q825.55,373,826.58,361h0"/><path class="cls-1" d="M741.78,534.78a241.05,241.05,0,0,1,25,22.53c6.21,6.45,12.3,13.39,20.38,17.26"/><path class="cls-1" d="M835.51,360.56q-.9,14.51-1.15,29c-.1,5.67-.12,11.4,1.17,16.93s4,10.89,8.48,14.36"/><path class="cls-1" d="M753.67,364.86q0,13.22.92,26.42a39.87,39.87,0,0,1-8.57,28,1.11,1.11,0,0,0-.36.83c.05.31.56.47.67.18"/><path class="cls-1" d="M843.68,421.5c-4.17,16.16-8.37,32.62-7.57,49.29,1,22,10.8,43.13,10.84,65.2"/><path class="cls-1" d="M746.1,420l2.75,14.37c2.46,12.89,4.94,25.94,4.06,39-1.39,20.8-11.19,40.54-11.13,61.38"/><path class="cls-1" d="M847,536a441.12,441.12,0,0,1-44.61,40.72"/><path class="cls-1" d="M760.1,364.49c.3,11.3.83,17.44,1.57,28.71,1.24,18.89,3.13,37.91,8.92,55.93,1.53,4.79,3.42,9.63,6.84,13.33,6.21,6.73,16.52,8.41,25.45,6.35a23.21,23.21,0,0,0,6.71-2.55c6.34-3.79,9.41-11.26,11.27-18.42,4.18-16.1,4.3-32.93,5.34-49.53q1.26-20.25,4.41-40.32"/><path class="cls-1" d="M764.73,385.85c-.42,17.08,2.43,34.07,5.61,50.86,1.12,5.91,2.3,11.89,5,17.24s7.28,10.08,13.08,11.66c4.81,1.32,10,.37,14.67-1.31A22.75,22.75,0,0,0,810.9,460c4.24-3.89,5.83-9.82,7-15.46,3.06-15.06,4.38-30.4,5.7-45.71.85-9.85,1.44-20.38,2.28-30.23"/><path class="cls-1" d="M833.06,359.23q-.9,15.6-1.08,31.23c-.07,6.05-.05,12.18,1.53,18s4.89,11.45,10.08,14.55"/><path class="cls-1" d="M756.82,366.73c1.08,11.7.79,16.3.33,28-.25,6.22-.74,12.57-3.27,18.26a27.16,27.16,0,0,1-7.18,9.6"/><path class="cls-1" d="M787.11,574.57a7.66,7.66,0,0,0,1.84.85,55.26,55.26,0,0,0,13.39,1.29"/><path class="cls-1" d="M764.67,390.65c1.46,1.16,1.84,3.17,2.3,5,3.15,12.41,15.3,21.93,28.1,22s25.07-9.29,28.37-21.65"/><path class="cls-1" d="M742,529.46c11.88,15.16,28.7,26.33,42.12,40.15a29.33,29.33,0,0,0,3.82,3.33c1.36,1,2.93,1.9,4.52,3.13"/><path class="cls-1" d="M846.76,532.16c-14.49,16.7-31.9,31.65-49.94,44.42"/><path class="cls-1" d="M530.41,440.7a50.68,50.68,0,0,1,.74-6.29c.73-3.65,2.21-7,2.88-10.66s.24-8.09-2-9.68a8.32,8.32,0,0,0-2.21-.91c-3.4-1.16-6.36-4.26-8.12-8.49-1.21-2.9-1.94-6.42-3.83-8.41-2.16-2.29-5.23-2-8-1.53a5.16,5.16,0,0,0-3.35,1.44c-1.25,1.36-1.69,3.73-2,5.89a21.22,21.22,0,0,0-.14,5.33c.56,3.94,3.11,6.39,5.61,8.06s5.27,3,6.94,6.15c2,3.76,2,9.14,1.77,14.1-.38,8.1-1,16.21-2,24.28a2.48,2.48,0,0,0,.08,1.34,1,1,0,0,0,.92.45l9.51.61c1.51.09,1.53-.63,1.66-2.52.16-2.2.34-4.4.51-6.6Z"/><path class="cls-1" d="M529.31,458,517,457"/><path class="cls-1" d="M533.4,426.89a22.71,22.71,0,0,0-5.65-4.42l2.8-9.25"/><path class="cls-1" d="M504.55,407.39l8.18-5.61A18,18,0,0,0,518,397c.16-.24.23-.76,0-.72"/><path class="cls-1" d="M511.8,394l1.26-13.16a12.51,12.51,0,0,0-4.8.14q0,7.44-.13,14.88"/><path class="cls-1" d="M508.24,395.87l.09,3.71,3,0,.89-6.86"/><path class="cls-1" d="M759.54,362.29l.12-18.69-6.23,0,1.23,21.17.1,1.8c1.52.93,3.32-.27,4.22-2a5.14,5.14,0,0,0,.56-2.27"/><path class="cls-1" d="M832,361.76l1.7-6.52,3.51-13.55-4.58.07-1.34,13.58-.53,5.44c0,.52,0,1.21.5,1.37s.53-1,.11-.69"/><path class="cls-1" d="M721.25,366.36c.81,21.53,1.71,44.92-.33,66.37-1.76,18.5-5.64,36.75-7,55.28-1,12.92-.7,25.89-.44,38.84s-.47,25.81-.6,38.9"/><path class="cls-1" d="M534.09,660.83q3.51-98.07,7-196.15c1.16-32.59,2.32-65.2,1.74-97.81"/><path class="cls-1" d="M585.48,674.41c-17.32-1.39-38.64-6-51.39-13.58"/><path class="cls-1" d="M636.17,677c-12.36-.4-24.71-.89-36.95-2.13"/><path class="cls-1" d="M663.92,678.11q-4.15-.23-8.33-.39c-2.74-.12-5.47-.22-8.21-.31"/><path class="cls-1" d="M537.21,662.55c-2.63-.28-4.25,2.9-4.38,5.54-.27,5.43,2.34,10.55,3.48,15.87s.81,4.49-.25,8.64"/><path class="cls-1" d="M539.67,663.72c-2,3.77-1.65,8.16-.43,12.27s3.91,8,3.69,12.31,1.24,7-2.22,9.58"/><path class="cls-1" d="M543.92,665.58c-3,6.73,1.47,14.21,3,21.42a27,27,0,0,1-1.55,16.08c-.16.38-.66,1.08-.34,1.34"/><path class="cls-1" d="M549.78,668.14c-3,10,4.38,20.91,1.55,31"/><path class="cls-1" d="M556.43,669.51c-1.88,2.86-1.39,6.2-.94,9.59q.9,6.58,1.78,13.18a21.93,21.93,0,0,1,.2,7,7.45,7.45,0,0,1-3.84,5.5"/><path class="cls-1" d="M561.54,670.76c-1.67,2.06-2,4.63-1.79,7.28.4,4.88,2.46,9.46,3.5,14.24s.85,10.35-2.56,13.86"/><path class="cls-1" d="M565.4,671.78c-1.91,2.29-1.93,5.66-1.08,8.52s2.44,5.43,3.54,8.21a24.85,24.85,0,0,1-.91,20"/><path class="cls-1" d="M571.2,672.64c-1.87,2.41-.44,5.37.53,8.25a45.92,45.92,0,0,1,1.41,24"/><path class="cls-1" d="M577.84,674c-2.47,6,.66,12.61,2,18.93a34.94,34.94,0,0,1-.5,16.85"/><path class="cls-1" d="M607.21,675.62c-2.67,3.21-3.13,8.24-2.47,12.36s2,8.15,2,12.32a18.46,18.46,0,0,1-3,9.91"/><path class="cls-1" d="M613.76,676.07c-3.92,5.15-3,12.06-2.28,18.49s1.47,13.47-2,18.92"/><path class="cls-1" d="M619.07,676.36c-2.35,3.27-2.25,6.8-1.91,10.82s1.37,8,1.54,12a28.91,28.91,0,0,1-2.49,13"/><path class="cls-1" d="M623,676.55c-2.7,4.77-.67,10.54.26,16a38.1,38.1,0,0,1-2.86,22.06"/><path class="cls-1" d="M632.12,677c-2.49,2.68-2.19,6.72-1.21,10.25s2.62,7,2.6,10.61c0,6.85-5.9,13.32-3.85,19.85"/><path class="cls-1" d="M891.78,367.89a4.26,4.26,0,0,1,1.74,1.16c1.25,1.36,1.68,3.73,2,5.89a20.32,20.32,0,0,1,.14,5.33c-.56,3.94-3.1,6.39-5.61,8.05s-5.26,3.05-6.94,6.16c-2,3.76-2,9.13-1.76,14.1.37,8.1,1,16.21,2,24.28a2.48,2.48,0,0,1-.09,1.34,1,1,0,0,1-.91.44l-9.52.61c-1.51.1-1.52-.62-1.66-2.51-.15-2.2-.33-4.4-.5-6.6l-1-12.56a53.07,53.07,0,0,0-.74-6.3c-.73-3.64-2.21-7-2.89-10.65s-.24-8.09,2-9.68a7.71,7.71,0,0,1,2.21-.91c3.4-1.17,6.35-4.26,8.12-8.5,1.2-2.9,1.47-7,3.82-8.41a11,11,0,0,1,5.92-1.55"/><path class="cls-1" d="M870.7,430.84l12.34-1"/><path class="cls-1" d="M866.62,399.77a22.57,22.57,0,0,1,5.65-4.43l-2.8-9.25"/><path class="cls-1" d="M895.46,380.27l-8.17-5.61a18.1,18.1,0,0,1-5.27-4.82c-.15-.23-.23-.75,0-.71"/><path class="cls-1" d="M887.8,365.63c-.42-4.39-.42-3-.84-7.36l4.76-.2c0,4.54-.06,5.56,0,9.49,0,.37,0,.77,0,1.19"/><path class="cls-1" d="M891.78,368.75l-.1,3.71-3,0-.63-4.92-.25-1.93"/><path class="cls-4" d="M789.19,515.5l0,5.76a2,2,0,0,0,.22,1.12.72.72,0,0,0,1,.25"/><path class="cls-4" d="M787,518.51h3.88"/><path class="cls-4" d="M791.93,515.07l.26,7.32"/><path class="cls-4" d="M792,520.45a2.85,2.85,0,0,1,.7-1.19,1,1,0,0,1,1.27,0,2.37,2.37,0,0,1,.34.78,1.74,1.74,0,0,0,1.94,1.11,1.4,1.4,0,0,0,.9-1.92.47.47,0,0,0-.21-.21c-.17-.07-.37.06-.5.2a1.76,1.76,0,0,0,.31,2.48,2.17,2.17,0,0,0,2.61-.14"/><path class="cls-5" d="M746.52,601a12.29,12.29,0,0,1,.59,7.18,7.1,7.1,0,0,1-4.72,5.14,11.16,11.16,0,0,1-2.58.29l-3.56.13a8.55,8.55,0,0,1-3.19-.3,7.26,7.26,0,0,1-3.49-3.43,31.83,31.83,0,0,1-1.82-4.15"/><path class="cls-5" d="M724.78,606.17a17.18,17.18,0,0,1-1.72,6.9,5.14,5.14,0,0,1-1.43,1.94,6,6,0,0,1-3.39.82l-6.44.24a6.43,6.43,0,0,1-4-.7c-1.45-1-1.82-3-2.07-4.71l-.74-5.29"/><path class="cls-5" d="M654.21,629.18a29.31,29.31,0,0,1,.87,7c0,2.65-.45,5.51-2.31,7.4a9.68,9.68,0,0,1-4.37,2.31,15,15,0,0,1-7.24.38,9.23,9.23,0,0,1-5.9-4,10.74,10.74,0,0,1-1.29-3.48,19.15,19.15,0,0,1,.21-8.81"/><path class="cls-6" d="M442.55,709.17,421.69,709a27.87,27.87,0,0,0-.16,6.12,8.33,8.33,0,0,0,5.21,7.09,13,13,0,0,0,15-3.45,4.2,4.2,0,0,0,.84-1.34,5.06,5.06,0,0,0,.15-1.65C442.68,713.64,442.6,711.33,442.55,709.17Z"/><path class="cls-5" d="M475.94,599.77c-1.48,3.92-.17,8.79-2.73,12.11a8.84,8.84,0,0,1-5.58,3,8.22,8.22,0,0,1-2.71.09,7.65,7.65,0,0,1-5.1-3.93,11.18,11.18,0,0,1-1.59-6.23c.08-1.07.1-1,1.08-1.15s2.32.05,3.46,0A31.75,31.75,0,0,0,475.94,599.77Z"/><path class="cls-5" d="M435.38,600.43c1.48,3.92.16,8.8,2.72,12.11a8.86,8.86,0,0,0,5.58,3,8.24,8.24,0,0,0,2.71.09,7.69,7.69,0,0,0,5.11-3.93,11.18,11.18,0,0,0,1.59-6.23c-.08-1.07-.11-1.05-1.09-1.14s-2.31,0-3.45,0A31.75,31.75,0,0,1,435.38,600.43Z"/><path class="cls-7" d="M765.86,531.52l-.82,2.67,3.61,2.77-.84.26-3-2.3-.2.66.77,2.42-.73.23-1.82-5.75.72-.23.68,2.13.8-2.6Z"/><path class="cls-7" d="M770,530.41l1.46,5.85-.74.18-1.46-5.85Z"/><path class="cls-7" d="M773.65,529.58l4.22,4.16L777,529l.75-.13,1,5.94L778,535l-4.11-4.06.81,4.63-.75.13-1-5.94Z"/><path class="cls-7" d="M786.34,533.28a3,3,0,0,1-2.08,1.05,3.09,3.09,0,0,1-3.36-2.84,3,3,0,0,1,.75-2.23,3,3,0,0,1,2.14-1.08,3.25,3.25,0,0,1,2.31.76l-.49.51a2.54,2.54,0,0,0-1.77-.6,2.23,2.23,0,0,0-1.6.82,2.42,2.42,0,0,0,2,4,2.18,2.18,0,0,0,1.36-.56l-.14-1.83.75-.06Z"/><path class="cls-7" d="M790.6,530.91a2.64,2.64,0,0,1-1-.62,1.33,1.33,0,0,1,.05-1.91,1.34,1.34,0,0,1,1-.4A1.4,1.4,0,0,1,792,529l-.69.25a1.48,1.48,0,0,0-.21-.44.67.67,0,0,0-.47-.22.64.64,0,0,0-.47.2.7.7,0,0,0-.21.51.73.73,0,0,0,.2.53,2.16,2.16,0,0,0,.59.4,2.94,2.94,0,0,1,1.2.74,1.77,1.77,0,0,1,.53,1.31,1.8,1.8,0,0,1-.57,1.3,1.92,1.92,0,0,1-2.71-.06,1.89,1.89,0,0,1-.52-1.13l.73-.25a1.57,1.57,0,0,0,.36,1,1.11,1.11,0,0,0,1.61,0,1.22,1.22,0,0,0,0-1.7A2.44,2.44,0,0,0,790.6,530.91Z"/><path class="cls-7" d="M798.45,530l.89,3.26,1.72-4.5.77.07-2.24,5.84-.66-.07-.87-3.29-1.53,3-.66-.07-1-6.17.77.08.77,4.76,1.53-3Z"/><path class="cls-7" d="M809.33,531.21a3.06,3.06,0,0,1-.92,4.26,3.14,3.14,0,0,1-4.78-3.27,3.15,3.15,0,0,1,5.7-1Zm-2.12-.72a2.44,2.44,0,0,0-2.51,3.71,2.33,2.33,0,0,0,3.26.71,2.45,2.45,0,0,0,.73-3.37A2.27,2.27,0,0,0,807.21,530.49Z"/><path class="cls-7" d="M817.88,533.81a3.07,3.07,0,0,1-1.39,4.14,3,3,0,0,1-2.4.15,3.11,3.11,0,0,1-2-3.93,3.15,3.15,0,0,1,5.78-.36Zm-2-.94a2.27,2.27,0,0,0-1.8.14,2.37,2.37,0,0,0-1.22,1.41,2.4,2.4,0,0,0,.12,1.86,2.33,2.33,0,0,0,3.17,1.06,2.39,2.39,0,0,0,1.22-1.42,2.34,2.34,0,0,0-.13-1.85A2.21,2.21,0,0,0,815.84,532.87Z"/><path class="cls-7" d="M822.85,534.94a3.19,3.19,0,0,1,1.79,1.74,2.93,2.93,0,0,1-.07,2.34,3,3,0,0,1-1.73,1.62,3.13,3.13,0,0,1-2.46-.2l-1.17-.52,2.48-5.5Zm-.74.4-1.93,4.28.47.21a2.42,2.42,0,0,0,1.86.16,2.33,2.33,0,0,0,1.36-1.29,2.38,2.38,0,0,0,.06-1.87,2.49,2.49,0,0,0-1.36-1.28Z"/><path class="cls-1" d="M590.91,886.34a61.5,61.5,0,0,0-3.63-44.27"/><path class="cls-1" d="M597.2,879.7a39.21,39.21,0,0,1,1.61-17.33,23.91,23.91,0,0,1,10.91-13.24"/><path class="cls-1" d="M588.87,877.77c1.25-3.42,2.4-7.58.11-10.42-1.19-1.48-3.08-2.21-4.87-2.87"/><path class="cls-1" d="M593.41,880.89c3.89-8.45,3.57-18.2,6.14-27.14,1.67-5.82,5.16-11.76,10.94-13.54"/><path class="cls-3" d="M233.79,516.49c-7.47,4-15,8.09-21.16,14A51.4,51.4,0,0,0,218,543.35c6.28,11.42,13.81,22.09,21.47,32.64,7.51,10.35,15.42,20.85,26.22,27.71,2.4,1.52,5.36,2.89,8,1.85,3-1.2,4.14-5,3.84-8.27s-1.67-6.6-3-9.73c-1.8-4.19-3.61-8.4-5.77-12.42a41,41,0,0,1-2.31-4.65,27,27,0,0,1-1.18-4.54A89.6,89.6,0,0,1,263.74,547a2.79,2.79,0,0,1,.28-1.41,3.42,3.42,0,0,1,1-.92c2.23-1.62,3.52-4.2,4.61-6.72,1-2.34,1.91-4.93,1.19-7.36-.61-2.07-2.27-3.63-3.87-5.08l-12.89-11.69c-1.4-1.27-3.55-4.21-5.39-4.76s-5,2.11-6.56,2.94C239.44,513.46,236.24,514.69,233.79,516.49Z"/><path class="cls-8" d="M234.88,515.85a31.25,31.25,0,0,1,1.79,6.85,49.54,49.54,0,0,0,2.15,7.45c1.32,3.49,3.14,7,6.12,9.2a25.07,25.07,0,0,0,6.5,3.15l2.82,1"/><path class="cls-3" d="M268.24,526.57a54.84,54.84,0,0,1-2.51,5.91c-1.23,2.47-3.13,5.14-5.89,5.2a10.81,10.81,0,0,0-1.8,0,4.63,4.63,0,0,0-1.84,1c-1,.79-2.12,1.75-2.27,3.05-.17,1.51,1,2.79,1.81,4.07,2,3,2.23,6.82,2.74,10.4a66.09,66.09,0,0,0,8.07,23.48,12.7,12.7,0,0,1,1.56,3.39,3.81,3.81,0,0,1-.79,3.5"/><path class="cls-3" d="M219.55,524.78q5.88,10.72,12.58,21c1.83,2.8,3.71,5.59,5.31,8.53s2.79,5.76,4.23,8.62c1.68,3.31,3.6,6.49,5.57,9.64,6.82,10.93,14.66,21.94,26.14,27.79,1.22.62,2.7,1.18,3.9.53"/><path class="cls-3" d="M240.7,512.66a7.36,7.36,0,0,1,.88.46"/><path class="cls-9" d="M243.22,514.32a37.58,37.58,0,0,1,3.73,4.13c4.69,5.58,10.42,10.17,16.2,14.63"/><path class="cls-3" d="M264,533.71l.79.61"/><path class="cls-3" d="M238.44,513.67c.31.14.61.28.9.44"/><path class="cls-10" d="M241.1,515.27c3,2.3,5.15,5.72,7.92,8.37,2.6,2.5,5.78,4.35,8.37,6.86a48.72,48.72,0,0,0,4.37,4.26"/><path class="cls-3" d="M262.63,535.34c.29.17.59.32.89.46"/><path class="cls-3" d="M217.48,526.28l.54.84"/><path class="cls-11" d="M219.1,528.79l4.91,7.6c2.54,3.93,5.09,7.87,7.41,11.94,5.36,9.39,9.52,19.47,15.4,28.55a88.61,88.61,0,0,0,18.73,20.81c2.73,2.21,5.73,4.31,9.09,5.22"/><path class="cls-3" d="M275.6,603.14c.33.06.65.11,1,.15"/><path class="cls-3" d="M254.65,583.36l7-.6a5.17,5.17,0,0,1,1.8.06,5.6,5.6,0,0,1,2.68,2.36,43.12,43.12,0,0,0,8.07,8.18,3.71,3.71,0,0,0,3,1.08"/><path class="cls-3" d="M257.91,554.19l-12.06-2.82a40.09,40.09,0,0,0-11-1.52"/><path class="cls-3" d="M258.65,558.75l-5.59-1.51c-5.19-1.42-10.47-2.84-15.86-2.73"/><path class="cls-3" d="M259.59,562.39a38.48,38.48,0,0,0-8-2.16c-2-.24-4-.16-6-.38-1.73-.2-3.43-.63-5.16-.81-.24,0-.57.29-.33.35"/><path class="cls-3" d="M261,566.9c-5.88-1.85-12.05-3.73-18.12-2.6"/><circle class="cls-3" cx="268.4" cy="534.67" r="1.23"/><circle class="cls-3" cx="266.15" cy="538.98" r="1.21"/><circle class="cls-3" cx="257.5" cy="542.69" r="1.23"/><circle class="cls-3" cx="260.18" cy="548.3" r="1.16"/><circle class="cls-3" cx="261.14" cy="558.22" r="1.05"/><circle class="cls-3" cx="260.45" cy="553.27" r="1.05"/><circle class="cls-3" cx="262.14" cy="563.12" r="1.05"/><ellipse class="cls-3" cx="265.18" cy="573.02" rx="0.95" ry="1.3" transform="translate(-189.6 135.02) rotate(-21.24)"/><ellipse class="cls-3" cx="263.66" cy="567.93" rx="0.95" ry="1.3" transform="translate(-187.86 134.12) rotate(-21.24)"/><ellipse class="cls-3" cx="267.18" cy="577.4" rx="0.68" ry="1.3" transform="translate(-191.05 136.04) rotate(-21.24)"/><ellipse class="cls-3" cx="269.64" cy="582" rx="0.68" ry="1.3" transform="translate(-192.55 137.24) rotate(-21.24)"/><path class="cls-3" d="M262.07,569.79c-4.38-.51-8.79-.86-13.2-1a7.94,7.94,0,0,0-3.73.46"/><path class="cls-3" d="M263.75,574.55l.11-.08c-5.27-1.19-10.79-1.13-16.2-1.06"/><path class="cls-3" d="M257.46,541.71a49.82,49.82,0,0,1,5.93,3.6,4.49,4.49,0,0,1,1.36,1.2.5.5,0,0,1,.09.23c0,.17-.16.3-.33.36a2.08,2.08,0,0,1-1.89-.56,23.09,23.09,0,0,0-2-1.58c-.92-.55-2-.76-2.93-1.32"/><path class="cls-3" d="M267.47,539.15a5.8,5.8,0,0,1,1.48,1.68,1.88,1.88,0,0,1,.34,1.21,2.22,2.22,0,0,1-.34.81,5.88,5.88,0,0,1-1.85,2c-.78.48-1.12-.13-2-.44a1.59,1.59,0,0,0,1.36-.13,3.42,3.42,0,0,0,1-1,1.29,1.29,0,0,0,.27-.5,1.31,1.31,0,0,0-.05-.59,4,4,0,0,0-1.48-2.15"/><path class="cls-3" d="M260.18,548l2.45,1.08a2,2,0,0,0,.74.23.71.71,0,0,0,.66-.34.43.43,0,0,0-.28-.61"/><path class="cls-3" d="M261,552.61a2.39,2.39,0,0,0,2.48.78A.86.86,0,0,0,264,553a.4.4,0,0,0-.17-.57"/><path class="cls-3" d="M262.06,557.62a3.49,3.49,0,0,1,1,.53,1.23,1.23,0,0,0,1,.22c.34-.13.52-.65.22-.87"/><path class="cls-3" d="M263.06,562.47a4.09,4.09,0,0,0,1.1.25,1.09,1.09,0,0,0,.83-.21c.21-.2.2-.63-.07-.73,0,0-.1,0-.11,0s.07,0,.05,0"/><path class="cls-3" d="M264.53,567.15a2.11,2.11,0,0,0,1.08.12.84.84,0,0,0,.68-.75c0-.36-.47-.67-.76-.46"/><path class="cls-3" d="M265.72,571.94a2,2,0,0,0,1,0,.9.9,0,0,0,.73-.64c0-.34-.39-.69-.65-.46"/><path class="cls-3" d="M267.47,576.51a2.83,2.83,0,0,0,1.16-.68,1,1,0,0,0,.11-1.24"/><path class="cls-3" d="M259.67,548.57a8.4,8.4,0,0,0,1.49,1.6,2.88,2.88,0,0,0,2,.64,1.49,1.49,0,0,0,1.1-.65.93.93,0,0,0-.18-1.18"/><path class="cls-3" d="M261,554.19a6.85,6.85,0,0,0,2,.46,1.27,1.27,0,0,0,.72-.09c.48-.26.51-.93.43-1.47"/><path class="cls-3" d="M262.07,558.73a4.45,4.45,0,0,0,1.86.44,1.13,1.13,0,0,0,.89-.3c.2-.25.07-.74-.25-.74"/><path class="cls-3" d="M262,563.5a17.06,17.06,0,0,0,2.37.17,1.45,1.45,0,0,0,1.22-.42,1.39,1.39,0,0,0-.39-1"/><path class="cls-3" d="M263.46,568.27a4.35,4.35,0,0,0,2.2.22,1.07,1.07,0,0,0,.53-.2c.37-.33.17-.94-.06-1.38"/><path class="cls-3" d="M265.12,573.38a2.79,2.79,0,0,0,1.22,0,1.74,1.74,0,0,0,1.13-.65.88.88,0,0,0-.12-1.19"/><path class="cls-3" d="M267.19,577.77a2.52,2.52,0,0,0,1.85-.88,1.33,1.33,0,0,0-.23-1.87"/><path class="cls-8" d="M236,515a4.56,4.56,0,0,1,1.22,2.34c.84,3,1.35,6.07,2.14,9.08a23.67,23.67,0,0,0,3.8,8.45,15.41,15.41,0,0,0,5.45,4.46,29,29,0,0,0,3.48,1.38l2.15.75"/><path class="cls-3" d="M229.18,548.76l-3.33,2.39q-4.89-7.44-9.53-15l2.42-1.41c.95-.55,1-.82,1.65-.12,1.22,1.23,2.07,3.35,3,4.82C223.87,540.19,229.29,548.69,229.18,548.76Z"/><path class="cls-3" d="M270.71,581.85a3.71,3.71,0,0,0,.79-1.54,1.92,1.92,0,0,0-.39-1.64.49.49,0,0,0-.5-.21.55.55,0,0,0-.28.28,6.84,6.84,0,0,0-.84,1.69C269.25,581.32,269.65,583.18,270.71,581.85Z"/><path class="cls-1" d="M270.8,398.71l.14,10.87c.05,3.69.1,7.38.28,11,.16,3.43.44,6.81.5,10.27a164,164,0,0,1-1.1,18c-1,10.43-1.78,21.32-1.23,32,.27,5.08.83,10,1.16,15a154.37,154.37,0,0,1-2.21,38.21c1.59-5.69,3.07-10.46,3.62-17.65.45-6.1.92-12.29.8-18.52-.17-8.87-1.51-17.3-1.63-26.18-.14-11.23,1.67-21.88,2.13-33,.55-13.22-.82-26.6-.5-39.85"/><path class="cls-3" d="M270.73,385.13a.8.8,0,0,1,1.08-.79l3.73.18c-2.26-.11-1.62,11.25-2.76,13.85a1,1,0,0,1-.38.49,1.46,1.46,0,0,1-.65.17,1.1,1.1,0,0,1-.93-.61C269.27,395.92,270.52,386.5,270.73,385.13Z"/><path class="cls-3" d="M270.45,387.32a13.74,13.74,0,0,1-3.71-3.2l-2.1,1c1.77,4.08,4,9.49,5.81,13.57"/><path class="cls-1" d="M352.08,394.62c-1.63,3.22-2.49,6.89-3.83,10.28-3,7.61-8.44,14-12.74,20.9C330.46,434,327,443,323.91,452.09a32,32,0,0,1-1.76,4.5c-.63,1.21-1.41,2.33-2.14,3.48-6.9,10.92-8.8,24.29-14.77,35.74"/><path class="cls-1" d="M411.64,534.44l-4.23.77a2.67,2.67,0,0,1-3.89-2.51l-4.36-24.41-7.47,21.4c-.72,2-1.72,4.37-3.81,4.93-1.47.39-3-.25-4.38-.88l-54-24.44c-8.49-3.84-17.07-7.74-24.38-13.53"/><path class="cls-1" d="M459.9,403.35c1.48-.29,3-.6,4.42-.91a2,2,0,0,1,1.34,0c.41.21.8,0,.41.28-1.15,9.44,4.18,18.26,7.74,27.07a123,123,0,0,1,4.06,12.26c6.73,23.65,10.58,48,13.93,72.38-25.68,7.54-51.85,14.6-78.18,19.62"/><path class="cls-1" d="M356.2,392.31l12,4.46c13.34,5,26.91,10,41.11,10.92,3.62.24,7.25.22,10.88.11a240.3,240.3,0,0,0,35.39-3.65"/><path class="cls-1" d="M406.35,407.43a42.54,42.54,0,0,1-1.06,8.54c-1,5.24-1.55,10.53-2.12,15.83l-1.31,12.06-4.31,39.68a81.15,81.15,0,0,0-.66,10.21c.11,5.29,1.27,10.49,2.42,15.65"/><path class="cls-1" d="M417.34,421.82a25.81,25.81,0,0,0,3.17-.19c2-.25,4-.76,5.95-1.08a102.82,102.82,0,0,1,12-.75,181.64,181.64,0,0,0,19.72-2.36,71.66,71.66,0,0,0,9.85-2"/><path class="cls-1" d="M348.94,403.9c5.06.64,9.28,2.79,13.95,4.84a161.25,161.25,0,0,0,48.65,12.75q1.66.17,3.33.27"/><path class="cls-1" d="M414.63,462.27A125.77,125.77,0,0,0,416.14,448l2.68-40"/><path class="cls-1" d="M398.83,473.22a22.73,22.73,0,0,0,6.48,1,8.31,8.31,0,0,0,6.11-2.54l.36-.46"/><path class="cls-1" d="M398.66,412.44a1.31,1.31,0,0,0-2.22.36,1.41,1.41,0,0,0,1.65,1.65,1.54,1.54,0,0,0,.81-2.26"/><path class="cls-1" d="M416.31,415a.85.85,0,0,0-1.23-.21,1.77,1.77,0,0,0-.61,1.25,1.59,1.59,0,0,0,.46,1.52,1.23,1.23,0,0,0,1.71-.61,2.3,2.3,0,0,0-.23-2"/><path class="cls-1" d="M391,423.38c-.5,4.13,0,8.44-1.37,12.37-1.89,5.48-7,9.18-10,14.11-6,9.72-3.41,22.42-6.57,33.41-1,3.57-2.66,6.93-3.77,10.47-2.88,9.19-2.11,19.06-1.31,28.65a109.67,109.67,0,0,0,2.23-17.79,34.13,34.13,0,0,1,1-8.8c.92-3,2.75-5.55,4-8.39,4.34-10,1.22-22.07,5.94-31.85,3.15-6.53,9.51-11.35,11.52-18.32,1.18-4.07.71-8.4.95-12.62s1.48-8.38,4.83-11.23C394.16,412.64,391.42,420,391,423.38Z"/><path class="cls-1" d="M412,456.44a77.3,77.3,0,0,0-.43,12.35c.3,4,1.24,8,1.18,12s-1.14,8.23-.83,12.33c.15,2.05.65,4,.9,6.07a50.59,50.59,0,0,1,.08,8.44l-1.47,32c-.07,1.4.13,3.19,1.37,3.53L415.56,513c.45-4.81.89-9.69.23-14.45-.56-4.09-1.93-8.12-1.47-12.24.25-2.29,1.07-4.48,1.36-6.77.53-4.14-.69-8.26-1-12.41a57.38,57.38,0,0,1,.17-8.29l2.5-37,.11-1.64c.1-1.48-.07-3.43-1.37-4.08-1,1.31-1.14,3.58-1.21,5.72,0,1.24,0,2.44-.12,3.38l-.94,10.53Z"/><path class="cls-1" d="M455.64,402.88c0,.42,0,.85,0,1.28a3.65,3.65,0,0,0,.39,1.62,3.53,3.53,0,0,0,2.41,1.51c.48.13,1.09.21,1.39-.28a1.94,1.94,0,0,0,.16-1c0-.88,0-1.75-.06-2.63-.1-6.46.11-12.93.62-19.37-3.95,1.34-3.91,1.57-4.1,6.22C456.24,394.43,455.9,398.66,455.64,402.88Z"/><path class="cls-1" d="M351.26,397.82a1,1,0,0,0,0,.76,1,1,0,0,0,.71.32l3.28.45,1.93-14.71c-.07.49-2.23.48-2.55.78-.78.7-.88,2.54-1.14,3.47-.54,2-1,3.94-1.53,5.92C351.74,395.81,351.5,396.81,351.26,397.82Z"/><path class="cls-3" d="M601.69,259.83a4.34,4.34,0,0,1,.1-1.93,13.31,13.31,0,0,1,1-1.91,11.23,11.23,0,0,0,.94-3.82"/><path class="cls-3" d="M589.92,274.37a4.92,4.92,0,0,0,3.26,3,3,3,0,0,0,3.55-2.08,11.74,11.74,0,0,0,3.12,2.93,3.94,3.94,0,0,0,4.07,0c1.93-1.35,1.52-4.27.91-6.54l-.75-2.78"/><path class="cls-3" d="M604.33,246.34l.19-1.87a16.21,16.21,0,0,1,.87-3.19,10.43,10.43,0,0,0,.37-2.79l.18-4.36a27.59,27.59,0,0,0-.35-7.21c-.78-3.45-2.86-6.44-4.89-9.33a20.58,20.58,0,0,0-2.24-2.84,11.84,11.84,0,0,1-1.81-1.94,3.72,3.72,0,0,0,.58-4.67,1.55,1.55,0,0,1-.4-.86,2.14,2.14,0,0,1,.42-.89,3.34,3.34,0,0,0,.33-1.33l.57-5.14a1,1,0,0,0-.07-.67c-.12-.19-.44-.28-.57-.09s0,.31-.1.47-.25.28-.24.12a4.86,4.86,0,0,0-4.37-5.21,4.11,4.11,0,0,0-4.82-.78,10.15,10.15,0,0,0-3.77,3.57,22.76,22.76,0,0,0-4.35,9.71c-.3,2-.19,4.11-.79,6.06-1.12,3.59-4.46,6.15-5.53,9.74-1.31,4.36,1,8.9,1.42,13.44.17,2.07,0,4.33,1.21,6,.39.53.9,1,1.34,1.46a11.16,11.16,0,0,1,1.64,2.61"/><path class="cls-3" d="M596.87,206.91a1,1,0,0,1-1.36-.24c-.19-.26-.33-.65-.65-.66a.71.71,0,0,0-.46.28c-.54.59-1.31,1.28-2,.9-.45-.26-.56-.83-.75-1.32-.55-1.46-2.49-2.38-3.8-1.51a7.14,7.14,0,0,1-1.29.93,2.52,2.52,0,0,1-1.36,0,5,5,0,0,1-3.43-1.94,2.76,2.76,0,0,1-.38-1.25"/><path class="cls-3" d="M592.78,207.41c-.16.69.44,1.3.84,1.89a3.84,3.84,0,0,1,.6,2.68.58.58,0,0,0,.67-.37,3.81,3.81,0,0,0,.16-.83,9.71,9.71,0,0,1,.57-1.47,3.56,3.56,0,0,0,0-2.49"/><path class="cls-3" d="M591.79,206.64a2.64,2.64,0,0,1-3.07,1.11,3.79,3.79,0,0,1-2.07-2.46"/><path class="cls-3" d="M600.42,251.32a20,20,0,0,0,1.37,6.58"/><path class="cls-3" d="M596.72,212.82a6.13,6.13,0,0,0,.62,3.29c.46.94,1.16,1.74,1.71,2.63a4.25,4.25,0,0,1,.77,3c-.09.48-.31.92-.43,1.4a7.17,7.17,0,0,0-.11,1.91,24.09,24.09,0,0,0,.42,4.24,7.77,7.77,0,0,1,.33,2.23,8.56,8.56,0,0,1-.31,1.42,11.57,11.57,0,0,0,.2,6.62c.14.42.31.84.41,1.28a8.52,8.52,0,0,1,.13,2c0,1-.05,1.92-.08,2.88"/><path class="cls-3" d="M588.16,205c.1-.4.82-.4,1.13-.4a1.39,1.39,0,0,1,.89.28,1,1,0,0,1,.05,1.47,1.22,1.22,0,0,1-1.51.11,1.49,1.49,0,0,1-.56-1.46"/><path class="cls-3" d="M599.47,263.82c-.29,1.52-.64,3-1.05,4.51-.23.86-.72,1.88-1.6,1.85a1.63,1.63,0,0,1-1.26-1c-.8-1.6-.37-3.51-.59-5.28-.18-1.5-.84-2.9-1-4.39a10.09,10.09,0,0,1,0-2.33"/><path class="cls-3" d="M600.39,251.32a56.54,56.54,0,0,1-.17,7"/><path class="cls-3" d="M600.37,241.65c-.5.34-.45,1.07-.63,1.64s-.64,1.2-1.23,1.09c-.31,0-.54-.3-.84-.42a1.35,1.35,0,0,0-1.35.36,3.19,3.19,0,0,0-.71,1.27c-.12.38-.29.82-.68.9s-.79-.39-1-.79a12,12,0,0,0-2.38-2.89.71.71,0,0,0-.61-.24.62.62,0,0,0-.38.47c-.39,1.36.64,3-.14,4.17a2.61,2.61,0,0,1-2.3.92,10.68,10.68,0,0,0-2.59,0,3.05,3.05,0,0,1-.94.17,25.5,25.5,0,0,0-2.69-.52"/><path class="cls-3" d="M598.28,244.42c.12,2.2.17,4.27.15,6.47,0,.22-.06.5-.28.53s-.34-.27-.37-.5l-.51-3.69a8.2,8.2,0,0,0-.37-1.77,1,1,0,0,0-.38.79,16.75,16.75,0,0,0,0,3.94,1.3,1.3,0,0,1-.06.76c-.13.23-.47.34-.64.15a.45.45,0,0,1-.11-.23,12.89,12.89,0,0,1-.57-3.6c0-.29,0-.58,0-.87"/><path class="cls-3" d="M588.27,248.24a7.2,7.2,0,0,0,.76,4.22c.1.23.19.54,0,.71a.44.44,0,0,1-.5,0,1.23,1.23,0,0,1-.36-.39l-.79-1.15a4.25,4.25,0,0,1-.78-1.58c-.12-.72.16-1.09-.05-1.79"/><path class="cls-3" d="M586.67,250.16a6.84,6.84,0,0,0,.38,3.09c.14.32.33.76.06,1a.63.63,0,0,1-.61.05,1.9,1.9,0,0,1-1.08-1.17,5.54,5.54,0,0,1-.26-1.62l-.22-3.23"/><path class="cls-3" d="M595.07,266.94c-.17.58,0,1.94-.15,2.53s-.75,1.15-1.32.94a1.49,1.49,0,0,1-.54-.43,10.27,10.27,0,0,1-2.56-3.88c-.26-.91-.27-1.87-.45-2.8a6,6,0,0,0-.37-1.32"/><path class="cls-3" d="M587.33,229.12a2.76,2.76,0,0,1-4.21,1.4"/><path class="cls-3" d="M590.61,221a3.89,3.89,0,0,1-2.93,1.24,1.84,1.84,0,0,1-.74-.08,2.08,2.08,0,0,1-.53-.32l-.5-.37"/><path class="cls-3" d="M583.12,225a4.92,4.92,0,0,1-3-.51,3.87,3.87,0,0,1-2-2.52"/><path class="cls-3" d="M594.85,214.58A3.56,3.56,0,0,1,593,216a3.64,3.64,0,0,1-2.37-.11"/><path class="cls-3" d="M597.76,227.59a.64.64,0,0,1,0,.43,3,3,0,0,1-4,1.79"/><path class="cls-3" d="M596.4,218.73a2.49,2.49,0,0,1-2.65,1.36,1.38,1.38,0,0,1-.49-.14c-.44-.23-.65-.8-1.12-1"/><path class="cls-3" d="M593.13,210.67a1.76,1.76,0,0,1-.71.61,2.31,2.31,0,0,1-1.11.33,3.16,3.16,0,0,1-1.07-.29l-.75-.3"/><path class="cls-3" d="M590.86,208.7a2,2,0,0,1-3.2-.77"/><path class="cls-3" d="M605.9,235.08a1.83,1.83,0,0,1-1,.19,2.22,2.22,0,0,1-.59-.36,1.86,1.86,0,0,1-.88-1.22"/><path class="cls-3" d="M605.42,226.51a.64.64,0,0,1-.83.42,1.92,1.92,0,0,1-.81-.66,6.74,6.74,0,0,1-.87-1.26"/><path class="cls-3" d="M604.62,243.37a2.47,2.47,0,0,1-2.23-.88,6,6,0,0,1-1.3-2.28,13.58,13.58,0,0,1-.38-7.42"/><path class="cls-3" d="M595.15,267.72c.18,2.78.22,5.8,1.56,7.52"/><path class="cls-3" d="M589.78,205.57c.09-.11.29,0,.27.15a.25.25,0,0,1-.32.17l0-.34"/><path class="cls-1" d="M650.17,263.82l1,.18"/><path class="cls-1" d="M661.7,266.27a5.36,5.36,0,0,1,1.17.39"/><path class="cls-3" d="M579.26,246.63c0,.18.18.12.34.22a8.08,8.08,0,0,0,2.15.94"/><path class="cls-1" d="M652.3,677.68a3.12,3.12,0,0,0-1.14,3.19,15.16,15.16,0,0,0,1.28,3.33,5.11,5.11,0,0,1,.45,3.48"/><path class="cls-1" d="M657.56,678.05a3.2,3.2,0,0,0-.68,2.56,5.54,5.54,0,0,1-1.41,5.44"/><path class="cls-1" d="M627.36,677c-2.1,2.88-2,6.82-1.23,10.3s2.19,6.84,2.45,10.4A16.57,16.57,0,0,1,626,707.73"/><path class="cls-1" d="M710.14,631.72a16.17,16.17,0,0,1-1.85-4.69c-.73-2.66-1.41-5.34-2.1-8-.32-1.26-.64-2.52-.85-3.8-.14-.89-.23-1.79-.32-2.69l-.67-6.68"/><path class="cls-1" d="M749.94,622.69a66.72,66.72,0,0,0,1.25-14.38"/><path class="cls-1" d="M706,636.85l9.87.72"/><path class="cls-1" d="M700.87,641A35.25,35.25,0,0,0,703.35,625c-.46-6.07-2.48-12.33-.52-18.1-2.42,1.36-4.58,4.21-4.49,7C698.62,621.93,704.72,634,700.87,641Z"/><path class="cls-1" d="M755.84,601.09c1.1,4.51,2.15,9.53-.08,13.6a8.65,8.65,0,0,0-1,1.93,6.35,6.35,0,0,0,.33,3.1,46.14,46.14,0,0,1,1.23,17.7c.71,0-2.81,5.86-2.1,5.88.23-.33.58.46.19.56s-.72-.31-.88-.68c-1.22-2.82-.07-6.07-.28-9.14-.16-2.3-1.1-4.48-1.6-6.74-1.63-7.28,1.26-14.75,1.53-22.2a8.54,8.54,0,0,0-.58-4,3.5,3.5,0,0,0-3.16-2.14"/><path class="cls-1" d="M707.41,615.24c-2-.17-3.33,2.22-3.13,4.21s1.31,3.76,1.84,5.68a19.25,19.25,0,0,1,.35,5.92l-.7,16.47"/><path class="cls-1" d="M753.79,599c1.56,8.66,3.1,17.73.46,26.13-1.88,6-5.86,12.06-3.88,18"/><path class="cls-1" d="M720.24,629.43c1,.82,2,1.66,3,2.41A8.12,8.12,0,0,0,725,633a7.9,7.9,0,0,0,3.46.34c2-.13,4.23-.44,5.71-1.86a21,21,0,0,0,2-2.59c.67-.86,2.22-2.58,3.3-2.57a7.34,7.34,0,0,1-6.34.9,4.9,4.9,0,0,0-1.39-.35c-1.33,0-2.44,1.42-3.74,1.16a6,6,0,0,1-1-.36c-1.44-.52-3,.16-4.47.65s-3.3.69-4.31-.48c4.17,4.83,13.38,3.42,17.75-.18"/><path class="cls-1" d="M715.12,636.37a7.48,7.48,0,0,1,.79,3.93c.07,4,.05,8.27-2,11.73a13.37,13.37,0,0,1-5.18,4.8,22.37,22.37,0,0,1-6.78,2.2,54.37,54.37,0,0,1-8.79,1.14"/></svg>